<svg xmlns="http://www.w3.org/2000/svg" width="19.906" height="22.118" viewBox="0 0 19.906 22.118">
  <path id="ic_assignment_24px" d="M20.695,3.212H16.072a3.3,3.3,0,0,0-6.237,0H5.212A2.218,2.218,0,0,0,3,5.424V20.906a2.218,2.218,0,0,0,2.212,2.212H20.695a2.218,2.218,0,0,0,2.212-2.212V5.424A2.218,2.218,0,0,0,20.695,3.212Zm-7.741,0a1.106,1.106,0,1,1-1.106,1.106A1.109,1.109,0,0,1,12.953,3.212Zm2.212,15.483H7.424V16.483h7.741Zm3.318-4.424H7.424V12.059H18.483Zm0-4.424H7.424V7.635H18.483Z" transform="translate(-3 -1)"/>
</svg>
