<svg xmlns="http://www.w3.org/2000/svg" xmlns:xlink="http://www.w3.org/1999/xlink" width="294.593" height="131.365" viewBox="0 0 294.593 131.365">
  <defs>
    <linearGradient id="linear-gradient" x1="0.5" y1="0.055" x2="0.5" y2="1.326" gradientUnits="objectBoundingBox">
      <stop offset="0" stop-color="#f59d10" stop-opacity="0.502"/>
      <stop offset="0.144" stop-color="#f59d10" stop-opacity="0.471"/>
      <stop offset="0.361" stop-color="#f59d12" stop-opacity="0.384"/>
      <stop offset="0.624" stop-color="#f69e16" stop-opacity="0.247"/>
      <stop offset="0.921" stop-color="#f69f1b" stop-opacity="0.055"/>
      <stop offset="1" stop-color="#f7a01d" stop-opacity="0"/>
    </linearGradient>
    <linearGradient id="linear-gradient-2" x1="0.5" y1="0.997" x2="0.5" y2="0.023" gradientUnits="objectBoundingBox">
      <stop offset="0" stop-color="#f2a37c"/>
      <stop offset="0.09" stop-color="#f2a47d" stop-opacity="0.969"/>
      <stop offset="0.225" stop-color="#f2a780" stop-opacity="0.882"/>
      <stop offset="0.39" stop-color="#f3ac86" stop-opacity="0.741"/>
      <stop offset="0.577" stop-color="#f4b28d" stop-opacity="0.549"/>
      <stop offset="0.783" stop-color="#f6bb97" stop-opacity="0.298"/>
      <stop offset="1" stop-color="#f8c6a3" stop-opacity="0"/>
    </linearGradient>
    <linearGradient id="linear-gradient-3" x1="0.5" y1="0.997" x2="0.5" y2="0.023" xlink:href="#linear-gradient-2"/>
    <clipPath id="clip-path">
      <path id="Path_44069" data-name="Path 44069" d="M1304.892,257.9a2.961,2.961,0,0,0-1.942-.983,7.936,7.936,0,0,0-5.267,1.346,30.5,30.5,0,0,1-4.9,2.6c-1.6.7-4.942.951-5.955,2.22a3.083,3.083,0,0,0-.194,1.645,2.305,2.305,0,0,0,1.611,2.243c1.106.442,4.327.663,8.339-.663s6.657-1.519,8.307-3.885A3.674,3.674,0,0,0,1304.892,257.9Z" transform="translate(-1286.625 -256.868)" fill="#def1f8"/>
    </clipPath>
    <clipPath id="clip-path-2">
      <path id="Path_44072" data-name="Path 44072" d="M1291.924,269.693a6.56,6.56,0,0,1-2.316-.3,1.712,1.712,0,0,1-1.12-1.045,1.29,1.29,0,0,1,.868-1.317,9.473,9.473,0,0,1,2.313-.7c.444-.09.947-.192,1.541-.363a15.911,15.911,0,0,0,5.162-2.478,9.138,9.138,0,0,1,5.421-1.841c.065,0,.131,0,.2,0,1.674.04,1.987.49,2.2.912a3.264,3.264,0,0,1-.622,2.485c-1.152,1.652-2.852,2.141-5.424,2.883-.775.223-1.653.476-2.592.787a18.1,18.1,0,0,1-5.63.977Z" transform="translate(-1288.477 -261.648)" fill="none"/>
    </clipPath>
  </defs>
  <g id="vector" transform="translate(0)">
    <g id="Group_8023" data-name="Group 8023" transform="translate(128.501 41.912)">
      <g id="Group_7955" data-name="Group 7955" transform="translate(59.17 50.093)">
        <path id="Path_43883" data-name="Path 43883" d="M1316.956,193.34s5.116-.83,7.662.087c1.842.663,4.054,2.244,4.646,7.023a51.634,51.634,0,0,1-12.308,1.852S1316,196.715,1316.956,193.34Z" transform="translate(-1316.531 -192.995)" fill="#f3ae92"/>
        <path id="Path_43884" data-name="Path 43884" d="M1321.581,204.012c.164-1.411.311-3.789-.318-5.227-.518-1.184-2.251-2.167-4.511-2.5a28.817,28.817,0,0,0,.2,8.05A41.183,41.183,0,0,0,1321.581,204.012Z" transform="translate(-1316.532 -195.031)" fill="#eb7c74" opacity="0.5"/>
        <path id="Path_43885" data-name="Path 43885" d="M1331.544,193.427a11.428,11.428,0,0,0-3.812-.426c1.268.056,5.305,1.031,6.476,3.724a17.665,17.665,0,0,1,1.1,3.964c.565-.145.886-.239.886-.239C1335.6,195.671,1333.386,194.09,1331.544,193.427Z" transform="translate(-1323.457 -192.996)" fill="#fff" opacity="0.2"/>
      </g>
      <g id="Group_7966" data-name="Group 7966" transform="translate(0 48.6)">
        <g id="Group_7956" data-name="Group 7956" transform="translate(0 3.992)">
          <path id="Path_43886" data-name="Path 43886" d="M1183.034,203.193c-2.377-.727-2.248-.854-4.44-1.646s-2.476-.875-4.362-1.578-8.565-1.619-11.524,7.062c-3.049,8.946.347,11.865,2.341,13.344,3.1,2.3,10.254,4.9,12.326,5.746C1177.375,226.122,1173.316,211.451,1183.034,203.193Z" transform="translate(-1161.49 -199.543)" fill="#f29297"/>
          <path id="Path_43887" data-name="Path 43887" d="M1183.034,203.193c-2.377-.727-2.248-.854-4.44-1.646s-2.476-.875-4.362-1.578-8.565-1.619-11.524,7.062c-3.049,8.946.347,11.865,2.341,13.344,3.1,2.3,10.254,4.9,12.326,5.746C1177.375,226.122,1173.316,211.451,1183.034,203.193Z" transform="translate(-1161.49 -199.543)" fill="#f29297"/>
          <path id="Path_43888" data-name="Path 43888" d="M1193.451,204.377c-3.188-.854-7.522-2.588-9.03-2.965s-3.769-.264-5.013.792,1.815-.011,5.47,1.232,5.194,1.987,6.412,2.454S1193.451,204.377,1193.451,204.377Z" transform="translate(-1172.395 -200.577)" fill="#f5a9a7"/>
          <path id="Path_43889" data-name="Path 43889" d="M1172.263,212.665c-2.159-.982-4.513-1.968-5.9-3.512-2.812-3.134-.594-5.658,1.162-6.894-1.838,1.025-3.629,2.962-4.818,6.452-3.049,8.946.347,11.865,2.341,13.344,3.1,2.3,10.254,4.9,12.326,5.746a29.544,29.544,0,0,1-.21-12.966C1175.475,214.109,1173.836,213.38,1172.263,212.665Z" transform="translate(-1161.49 -201.222)" fill="#ec6469" opacity="0.5"/>
          <path id="Path_43890" data-name="Path 43890" d="M1165.28,207.035a13.24,13.24,0,0,0-2.572,4.629c-3.049,8.946.347,11.865,2.341,13.344,3.1,2.3,10.254,4.9,12.326,5.746a29.615,29.615,0,0,1-.838-7,61.485,61.485,0,0,1-9.654-4.893C1160.391,214.62,1164.9,207.6,1165.28,207.035Z" transform="translate(-1161.49 -204.176)" fill="#e73555" opacity="0.5"/>
        </g>
        <g id="Group_7958" data-name="Group 7958" transform="translate(13.661 7.55)">
          <g id="Group_7957" data-name="Group 7957">
            <path id="Path_43891" data-name="Path 43891" d="M1213.253,235.886a1.057,1.057,0,0,1-.923.428c-.805-.013-2.409-.793-6.516-2.088-3.3-1.04-5.371-1.456-5.99-2.009-1.542-1.379-3.458-6.56-2.047-13.065,1.319-6.081,5.32-9.309,6.694-9.953,1.126-.527,2.343-.417,4.648.27a33.808,33.808,0,0,0,4.251.973c.819.133,1.6.23,2.345.3,1.95.179,1.589.906,1.589.906a14.139,14.139,0,0,0-8.271,9.847A15.064,15.064,0,0,0,1213.253,235.886Z" transform="translate(-1197.285 -208.866)" fill="#16a461"/>
          </g>
          <path id="Path_43892" data-name="Path 43892" d="M1213.16,209.5c-.07.027-.14.057-.209.09a8.549,8.549,0,0,0-1.952,1.423,77.417,77.417,0,0,0,9.061,2.962s1.732-.166,3.05-.44c.471-.333.911-.606,1.292-.822a4.02,4.02,0,0,0-1.173-.38C1219.913,211.619,1215.182,210.146,1213.16,209.5Z" transform="translate(-1205.765 -209.258)" fill="#3ec664"/>
          <path id="Path_43893" data-name="Path 43893" d="M1197.972,233.774c-.068.256-.137.511-.2.779-1.411,6.505.5,11.687,2.047,13.065.619.553,2.689.969,5.99,2.009,4.107,1.295,5.711,2.075,6.516,2.088a1.057,1.057,0,0,0,.923-.428,14.966,14.966,0,0,1-4.438-13.109C1205.05,236.789,1201.392,235.278,1197.972,233.774Z" transform="translate(-1197.285 -224.268)" fill="#16935d"/>
          <path id="Path_43894" data-name="Path 43894" d="M1212.348,261.338a1.056,1.056,0,0,0,.923-.428,14.188,14.188,0,0,1-3.623-5.486l-3.149-2.618s-4.308-1.353-9.186-3.471c.128,3.979,1.424,6.918,2.528,7.906.619.553,2.689.969,5.99,2.009C1209.938,260.544,1211.542,261.325,1212.348,261.338Z" transform="translate(-1197.302 -233.891)" fill="#0e7f4c"/>
          <path id="Path_43895" data-name="Path 43895" d="M1208.164,222.322A13.7,13.7,0,0,1,1218,211.515a33.964,33.964,0,0,1-3.722-.847h-.005c-1.26.139-7.714,3.068-8.879,10.473-1.129,7.173,1.748,12.378,2.76,13.443h0c.736.213,1.574.458,2.516.754.468.148.9.287,1.306.421h0A16.826,16.826,0,0,1,1208.164,222.322Z" transform="translate(-1202.136 -209.98)" fill="#ffd348"/>
          <path id="Path_43896" data-name="Path 43896" d="M1221.016,212.1a13.323,13.323,0,0,0-2.49,1.591c.954.337,2,.689,3.1,1.026a15.044,15.044,0,0,1,2.781-1.643C1223.245,212.758,1222.076,212.419,1221.016,212.1Z" transform="translate(-1210.419 -210.866)" fill="#ffe568"/>
          <path id="Path_43897" data-name="Path 43897" d="M1211.969,251.91h0a16.827,16.827,0,0,1-3.808-13.439c.03-.18.068-.355.1-.529q-1.411-.574-2.786-1.158c-.032.168-.065.335-.093.508-1.129,7.173,1.748,12.378,2.76,13.443h0l.007,0,.458.133.169.05.4.116.209.062.428.129.2.059.654.2.683.218Z" transform="translate(-1202.136 -226.13)" fill="#e85d1c" opacity="0.1" style="mix-blend-mode: multiply;isolation: isolate"/>
          <path id="Path_43898" data-name="Path 43898" d="M1211.559,261.554c.21.068.411.133.606.2l.014,0h0a17.108,17.108,0,0,1-3.769-7.938c-.862-.312-1.86-.685-2.942-1.111a15.482,15.482,0,0,0,2.889,7.873h0l0,0,.457.132h0l.122.035.565.167.087.026h0l.423.127h0l.2.059h0l.652.2.683.218Z" transform="translate(-1202.347 -235.976)" fill="#e85d1c" opacity="0.3" style="mix-blend-mode: multiply;isolation: isolate"/>
        </g>
        <g id="Group_7959" data-name="Group 7959" transform="translate(22.453)">
          <path id="Path_43899" data-name="Path 43899" d="M1299.359,189.132s-1.229-.443-5.824,1.339-31.509,11.129-61.986,8.941c0,0-6.283-.861-10.128,7.993s3.629,15.123,3.629,15.123,10.459,5.97,35.7,7.141c24.282,1.126,35.994-1.6,41.137-2.91,5.337-1.364,7.166-2.452,7.478-3.139C1309.668,222.96,1299.359,189.132,1299.359,189.132Z" transform="translate(-1220.322 -189.083)" fill="#ffd348"/>
          <path id="Path_43900" data-name="Path 43900" d="M1250.92,250c-9.381-.026-20.3-3.2-30.242-7.043-1.849,7.653,4.38,12.884,4.38,12.884s10.459,5.97,35.7,7.141c24.282,1.126,35.994-1.6,41.137-2.91,5.337-1.364,7.166-2.452,7.478-3.139a47.782,47.782,0,0,0-1.483-5.825l-18.678-4.374A214.649,214.649,0,0,1,1250.92,250Z" transform="translate(-1220.33 -222.398)" fill="#e85d1c" opacity="0.1" style="mix-blend-mode: multiply;isolation: isolate"/>
          <path id="Path_43901" data-name="Path 43901" d="M1302.729,189.132s-1.229-.443-5.824,1.339-31.509,11.129-61.986,8.941c0,0-5.3-.72-9.148,6.032,25.321,8.436,54.584,1.961,63.926-.994l13.518-4.459,2.023-2.568C1303.8,192.643,1302.729,189.132,1302.729,189.132Z" transform="translate(-1223.691 -189.083)" fill="#ffda60"/>
          <path id="Path_43902" data-name="Path 43902" d="M1301.951,197.059s6.8-5.2,4.519-4.7-12.223,5.473-33,8.838a122.741,122.741,0,0,1-35.557.514,9.447,9.447,0,0,0-3.168,1.643,96.326,96.326,0,0,0,28.818,2.187C1285.448,204.077,1298.071,198.709,1301.951,197.059Z" transform="translate(-1229.239 -191.088)" fill="#ffe568"/>
          <path id="Path_43903" data-name="Path 43903" d="M1225.771,230.342c25.321,8.436,54.584,1.961,63.926-.994" transform="translate(-1223.691 -213.981)" fill="none" stroke="#ffeaa8" stroke-miterlimit="10" stroke-width="3"/>
          <path id="Path_43904" data-name="Path 43904" d="M1292.51,261.376c-4.054,1.439-35.219,8.356-71.124-4.009a15.018,15.018,0,0,0,4.322,6.979s10.459,5.97,35.7,7.141c24.282,1.126,35.994-1.6,41.137-2.91,5.337-1.364,7.166-2.452,7.478-3.139a87.181,87.181,0,0,0-2.316-8.727Z" transform="translate(-1220.98 -230.9)" fill="#fecb2f"/>
          <path id="Path_43905" data-name="Path 43905" d="M1310.027,266.5a5.11,5.11,0,0,0-.23-1.214l-8.505-.392c-9.822,4.459-52.153,10.073-79.906-6.465a13.541,13.541,0,0,0,1.566,3.619,14.855,14.855,0,0,0,2.756,3.36s10.459,5.97,35.7,7.141c24.282,1.126,35.994-1.6,41.137-2.91C1307.886,268.276,1309.715,267.188,1310.027,266.5Z" transform="translate(-1220.98 -231.965)" fill="#e85d1c" opacity="0.3" style="mix-blend-mode: multiply;isolation: isolate"/>
          <path id="Path_43906" data-name="Path 43906" d="M1292.51,262.44c-4.054,1.439-35.219,8.356-71.124-4.009" transform="translate(-1220.98 -231.965)" fill="none" stroke="#ffe568" stroke-miterlimit="10" stroke-width="3"/>
        </g>
        <g id="Group_7962" data-name="Group 7962" transform="translate(26.414 20.497)">
          <path id="Path_43907" data-name="Path 43907" d="M1237.542,243.761c-2.1-.452-3.116-.683-4.613-.933-2.6-.434-2.942,2.974-.93,4.1a17.1,17.1,0,0,0,5,1.828,12.41,12.41,0,0,0,3.148.3,2.3,2.3,0,0,0,2.18-1.557,2.34,2.34,0,0,0-1.312-2.749A17.106,17.106,0,0,0,1237.542,243.761Z" transform="translate(-1230.701 -242.791)" fill="#16a461"/>
          <path id="Path_43908" data-name="Path 43908" d="M1232,249.249a17.1,17.1,0,0,0,5,1.828,12.407,12.407,0,0,0,3.148.3,2.381,2.381,0,0,0,2.086-1.3c-3.834-.96-7.7-2.181-11.481-3.539A2.573,2.573,0,0,0,1232,249.249Z" transform="translate(-1230.703 -245.108)" fill="#16935d"/>
          <g id="Group_7961" data-name="Group 7961" transform="translate(2.064 1.154)">
            <g id="Group_7960" data-name="Group 7960">
              <path id="Path_43909" data-name="Path 43909" d="M1242.32,250.04c-.237-.018-.356-.029-.592-.054-.24-.256-.355-.386-.579-.649-1.312-1.577-1.79-2.389-2.637-2.684a1.165,1.165,0,0,0-1.574.535,1.5,1.5,0,0,0-.013,1.228c-.282-.014-.423-.023-.7-.048a1.919,1.919,0,0,1,.146-1.6,1.816,1.816,0,0,1,2.317-.819c.991.347,1.59,1.241,2.656,2.533.153.2.232.292.394.484l.02,0c.206-.95.292-1.427.43-2.381.265.026.4.037.666.052A28.967,28.967,0,0,1,1242.32,250.04Z" transform="translate(-1236.108 -245.814)" fill="#ffd348"/>
            </g>
          </g>
        </g>
        <g id="Group_7965" data-name="Group 7965" transform="translate(88.447 0.006)">
          <g id="Group_7963" data-name="Group 7963">
            <path id="Path_43910" data-name="Path 43910" d="M1406.288,189.142c-1.2.318-5,4.078-7.6,7.526s-5.241,6.375-5.43,7.792,1.936,6.327,2.88,8.971a38.634,38.634,0,0,0,2.644,6.138c.425.519,6.374,1.794,8.782,2.455s7.885,1.794,8.735,1.606,8.976-8.754,13.081-14.369a123.116,123.116,0,0,0,8.445-13.089c.331-.708.334-2-1.413-2.288s-9.68-1.29-15.958-2.266C1414.578,190.7,1407.61,188.792,1406.288,189.142Z" transform="translate(-1393.245 -189.1)" fill="#f8e9d0"/>
            <path id="Path_43911" data-name="Path 43911" d="M1437.727,194.118a2.62,2.62,0,0,0-.76-.234c-1.747-.283-9.68-1.29-15.959-2.266-5.876-.913-12.843-2.826-14.165-2.475-1.2.318-5.005,4.078-7.6,7.526-2.127,2.824-4.283,5.3-5.1,6.879,1.491-.472,7.177-1.475,18.916-3.654,2.186-.406,4.815-.921,6.974-1.3A134.834,134.834,0,0,0,1437.727,194.118Z" transform="translate(-1393.801 -189.1)" fill="#fcf1e0"/>
            <path id="Path_43912" data-name="Path 43912" d="M1441.857,202.249h0c1.256,1.6-1.105,3.208-3.659,5.4s-8.4,6.421-19.225,9.741c-11.206,3.436-13.651,3.436-18.15,4.171a38.646,38.646,0,0,0,2.644,6.138c.425.519,6.374,1.794,8.782,2.455s7.885,1.794,8.735,1.606,8.976-8.754,13.081-14.369a123.178,123.178,0,0,0,8.446-13.089A1.491,1.491,0,0,0,1441.857,202.249Z" transform="translate(-1397.931 -197.231)" fill="#f5dfce"/>
            <path id="Path_43913" data-name="Path 43913" d="M1444.991,196.338s-8.384-.493-14.638-1.569c-5.705-.981-13.469-2.59-14.985-2.384a42.63,42.63,0,0,0-4.519,4.7c.586-.382,3.326-.443,11.159,0C1428.59,197.462,1441.264,197.355,1444.991,196.338Z" transform="translate(-1404.13 -191.121)" fill="#fff8ed"/>
            <path id="Path_43914" data-name="Path 43914" d="M1460.193,211.555c-3.766,6.216-15.951,18.215-29.431,24.354,2.408.661,7.885,1.794,8.735,1.606s8.976-8.754,13.081-14.369c3.54-4.842,6.3-9.316,7.616-11.591Z" transform="translate(-1416.444 -202.985)" fill="#edc1ad"/>
          </g>
          <g id="Group_7964" data-name="Group 7964" transform="translate(26.222 2.748)">
            <path id="Path_43915" data-name="Path 43915" d="M1478.9,198.336c-1.61-.261-8.471-1.137-14.451-2.036h0s-4.067,3.621-1.813,10.116,9.231,7.3,9.231,7.3a123.122,123.122,0,0,0,8.446-13.089C1480.642,199.916,1480.646,198.62,1478.9,198.336Z" transform="translate(-1461.954 -196.3)" fill="#194a72"/>
            <path id="Path_43916" data-name="Path 43916" d="M1478.665,198.3l-.15-.023-.084-.013-.15-.022-.12-.017-.148-.021-.135-.019-.164-.023-.141-.02-.195-.027-.127-.018-.239-.033-.115-.016c-2.874-.4-7.913-1.065-12.447-1.747h0a8.855,8.855,0,0,0-2.483,6.741c9.5-1.683,18.758-3.972,16.934-4.706l-.176-.028Z" transform="translate(-1461.955 -196.3)" fill="#29688c"/>
            <path id="Path_43917" data-name="Path 43917" d="M1485.865,204.129c.01-.03.02-.06.029-.091s.01-.039.016-.059.013-.056.019-.085.009-.045.013-.068.007-.053.011-.08.006-.051.008-.077,0-.04,0-.061a1.6,1.6,0,0,0,0-.19c0-.014,0-.028,0-.042,0-.036-.009-.072-.016-.108,0-.015-.005-.029-.008-.044-.008-.037-.017-.074-.028-.11,0-.012-.007-.024-.011-.036-.013-.04-.027-.079-.044-.118l0-.009a1.309,1.309,0,0,0-.255-.379l0,0a1.451,1.451,0,0,0-.112-.1l-.025-.021a1.543,1.543,0,0,0-.126-.091l-.031-.019c-.047-.029-.1-.058-.15-.085h0c1.255,1.6-1.105,3.208-3.659,5.4-1.649,1.416-5.584,3.753-10.659,6.628a12.164,12.164,0,0,0,6.526,3.113A123.089,123.089,0,0,0,1485.8,204.3c.019-.04.037-.084.053-.128C1485.855,204.16,1485.86,204.144,1485.865,204.129Z" transform="translate(-1467.439 -199.979)" fill="#123668"/>
            <path id="Path_43918" data-name="Path 43918" d="M1463.135,201.577c5.767-.018,11.806-.3,14.188-.946,0,0-7.088-.417-13.092-1.321A8.986,8.986,0,0,0,1463.135,201.577Z" transform="translate(-1462.684 -198.161)" fill="#3c8daa"/>
            <path id="Path_43919" data-name="Path 43919" d="M1485.151,222.138q.274-.382.541-.76l.024-.034q.278-.394.547-.782l.136-.2q.247-.355.487-.705l.043-.063q.258-.377.506-.746l.126-.187q.221-.329.435-.65l.057-.085q.238-.358.465-.705l.108-.165.4-.61.054-.083q.217-.337.423-.66l.09-.142q.181-.285.355-.561l.051-.081q.2-.313.381-.61l.062-.1q.167-.27.325-.527l.037-.06q.174-.285.335-.551l.036-.059.3-.493.014-.024.289-.487.01-.018c.091-.154.177-.3.257-.44a56.485,56.485,0,0,1-9.778,11.049,11.507,11.507,0,0,0,2.162.542q.3-.405.584-.806Z" transform="translate(-1474.51 -205.733)" fill="#0e2d54"/>
          </g>
        </g>
      </g>
      <path id="Path_43920" data-name="Path 43920" d="M1248.063,217.381c-.2,1.44.457,3.872,4.064,5.19s8.848.258,9.412.258,1.192.376.815,2.446a15.193,15.193,0,0,0,.252,4.909,1.468,1.468,0,0,0-.5,1.882c.5,1.3-.5,2.549-.5,3.932s-.815,5.2,2.7,5.581,12.231-3.338,12.106-4.427-2.659-1.739-4.058-3.8-.931-14.723-6.307-14.917S1248.063,217.381,1248.063,217.381Z" transform="translate(-1215.004 -157.981)" fill="url(#linear-gradient)"/>
      <g id="Group_7967" data-name="Group 7967" transform="translate(21.724 24.809)">
        <path id="Path_43921" data-name="Path 43921" d="M1242.637,130.688a5.792,5.792,0,0,0-5.644,1.813c-2.122,2.223-3.877,5.672-2.132,7.024S1242.637,130.688,1242.637,130.688Z" transform="translate(-1228.144 -129.089)" fill="#28bbe2"/>
        <path id="Path_43922" data-name="Path 43922" d="M1242.641,130.935a13.3,13.3,0,0,0-5.219,4.026c-1.626,2.026-2.609,2.059-2.632.916-.762,1.573-.954,3.1.074,3.9C1236.608,141.124,1242.641,130.935,1242.641,130.935Z" transform="translate(-1228.147 -129.336)" fill="#242357" opacity="0.2" style="mix-blend-mode: multiply;isolation: isolate"/>
        <path id="Path_43923" data-name="Path 43923" d="M1223.007,164.36c-.854-.129-2.6.324-3.553,2.506s-1.641,7.317-.265,9.117a3.107,3.107,0,0,0,3.129,1.337Z" transform="translate(-1218.413 -149.992)" fill="#28bbe2"/>
        <path id="Path_43924" data-name="Path 43924" d="M1220.378,170.889c-.359,2.461-1.619,2.47-1.956,1.79a5.852,5.852,0,0,0,.772,3.336,3.107,3.107,0,0,0,3.129,1.337l.69-12.96S1221.074,166.124,1220.378,170.889Z" transform="translate(-1218.419 -150.024)" fill="#242357" opacity="0.2" style="mix-blend-mode: multiply;isolation: isolate"/>
        <path id="Path_43925" data-name="Path 43925" d="M1249.273,127.781c-1.652-.931-6.892-1.712-10.968-.131s-10.11,9.663-12.387,16.35-.35,12.757,6.944,13.6,11.06-.159,12.83-1.006,4.595-6.953,5.846-13.768S1249.273,127.781,1249.273,127.781Z" transform="translate(-1222.495 -126.744)" fill="#28bbe2"/>
        <path id="Path_43926" data-name="Path 43926" d="M1251.449,128.977a13.933,13.933,0,0,0-7.3.41c-3.186,1-8.486,4.845-11.34,10.191s.271,15.845,0,16.608c-.214.6-2.461.4-4.279-.984a8.495,8.495,0,0,0,6.5,3.6c7.295.847,11.06-.159,12.83-1.006s4.595-6.953,5.845-13.768S1251.449,128.977,1251.449,128.977Z" transform="translate(-1224.671 -127.94)" fill="#242357" opacity="0.2" style="mix-blend-mode: multiply;isolation: isolate"/>
        <path id="Path_43927" data-name="Path 43927" d="M1222.48,165.68a5.615,5.615,0,0,0-2.3,3.742c-.365,1.846.483,1.567.733.734s.591-2.747,1.538-3.818C1223.218,165.465,1222.855,165.465,1222.48,165.68Z" transform="translate(-1219.448 -150.747)" fill="#f5fffe" opacity="0.2"/>
        <path id="Path_43928" data-name="Path 43928" d="M1243.439,131.522a5.9,5.9,0,0,0-3.187,2.435c-.565,1.01.056,1.261.679.584s1.83-2.212,3.045-2.664S1244.514,131.206,1243.439,131.522Z" transform="translate(-1231.78 -129.606)" fill="#f5fffe" opacity="0.2"/>
        <path id="Path_43929" data-name="Path 43929" d="M1256.185,127.751c.3.038-.781.34-2.428,1.2a30.474,30.474,0,0,0-5.421,4.078c-1.074,1.035-1.741.1,1.081-2.518C1251.567,128.522,1254.748,127.569,1256.185,127.751Z" transform="translate(-1236.345 -127.353)" fill="#f5fffe" opacity="0.2"/>
      </g>
      <g id="Group_7979" data-name="Group 7979" transform="translate(12.742 25.207)">
        <g id="Group_7968" data-name="Group 7968" transform="translate(43.286 7.465)">
          <path id="Path_43930" data-name="Path 43930" d="M1310.7,147.347c.414.785,2.011,5.816.578,8.572s-2.981.956-2.981.956l1.395-9.228Z" transform="translate(-1308.299 -147.347)" fill="#007cb6"/>
        </g>
        <path id="Path_43931" data-name="Path 43931" d="M1310.607,149.373a8.1,8.1,0,0,0-.333-1.693l-.58.172-1.395,9.228a1.836,1.836,0,0,0,1.012.564c-.133-.246-.222-.383-.222-.383A12.889,12.889,0,0,0,1310.607,149.373Z" transform="translate(-1265.013 -140.088)" fill="#00629e"/>
        <g id="Group_7969" data-name="Group 7969" transform="translate(42.866 11.974)">
          <path id="Path_43932" data-name="Path 43932" d="M1310.869,162.58a2.4,2.4,0,0,0-2.681,0c-.771.6-.989,2.6-.989,2.6l.744,4.745a3.383,3.383,0,0,0,1.459.7,1.81,1.81,0,0,0,1.466-.613c.311-.263,1.011-.263,1.273-.963a10.015,10.015,0,0,1,.613-2.012c.35-.481,1.433-1.269.957-2.538a3.947,3.947,0,0,1-.4-2.844c.253-.867.67-1.61.208-2.172-.575-.7-1.765-.147-2.339.772A7.333,7.333,0,0,1,1310.869,162.58Z" transform="translate(-1307.2 -159.162)" fill="#f8c6a3"/>
          <path id="Path_43933" data-name="Path 43933" d="M1311.306,170.454c-.009-.3-1.168-.633-1.981-1.441a1.08,1.08,0,0,1,.968-1.841,2.324,2.324,0,0,0-2.1.282c-.771.6-.989,2.6-.989,2.6l.744,4.745a3.384,3.384,0,0,0,1.459.7,1.461,1.461,0,0,0,1.039-.269.743.743,0,0,1-.865-.219c-.4-.445.141-1.392.408-2.01s-1.237-1.1-.48-2.432C1309.877,169.907,1311.315,170.756,1311.306,170.454Z" transform="translate(-1307.2 -164.036)" fill="#f2a37c"/>
          <path id="Path_43934" data-name="Path 43934" d="M1318.731,159.171a2.225,2.225,0,0,0-1.6,1.085,7.333,7.333,0,0,1-.315,2.33s.817.527,1.4.937a3.025,3.025,0,0,1-.444-1.059,3.747,3.747,0,0,1,.058-2.42A1.705,1.705,0,0,1,1318.731,159.171Z" transform="translate(-1313.146 -159.167)" fill="#f2a37c"/>
          <path id="Path_43935" data-name="Path 43935" d="M1322.213,161.93a3.715,3.715,0,0,0,.274,2.745,2.563,2.563,0,0,1-.441,2.728h0a2.273,2.273,0,0,0,.843-2.4,3.944,3.944,0,0,1-.4-2.844c.253-.867.67-1.61.208-2.172C1322.856,160.27,1322.658,160.938,1322.213,161.93Z" transform="translate(-1316.377 -159.674)" fill="#fff" opacity="0.3"/>
        </g>
        <path id="Path_43936" data-name="Path 43936" d="M1268.331,137.537s2.32-.514,2.74,3.715a12.888,12.888,0,0,1-1.517,7.888,10.1,10.1,0,0,1,1.1,7.752c-.806,2.77-14.5,5.452-25.076,3.124,0,0,.354-9.463,3.745-15.94a20.035,20.035,0,0,1,9.086-8.822l3.58-.231a10.651,10.651,0,0,0,3.223,2.778A3.8,3.8,0,0,0,1268.331,137.537Z" transform="translate(-1226.228 -132.262)" fill="#eff8fc"/>
        <path id="Path_43937" data-name="Path 43937" d="M1257.034,184.986l4.844-3.877s-5.824,1.259-9.188.609-4.161-4.039-2.986-5.536l-.877-2-1.758.213a52.17,52.17,0,0,0-1.491,9.834A41.093,41.093,0,0,0,1257.034,184.986Z" transform="translate(-1226.228 -156.478)" fill="#cce4ea"/>
        <path id="Path_43938" data-name="Path 43938" d="M1295.218,167.319s3.652.119,5.031,1.537a3.873,3.873,0,0,0,.481-.921A5.9,5.9,0,0,0,1295.218,167.319Z" transform="translate(-1256.924 -151.977)" fill="#cce4ea"/>
        <path id="Path_43939" data-name="Path 43939" d="M1251.057,168.7c1.5.377,3.463,2.325,7.428,2.584a9.084,9.084,0,0,0,7.617-2.584,10.171,10.171,0,0,1-7,.167c-4.31-1.486-5.54-5.169-9.956-5.269-.07,0-.137,0-.206.005a42.8,42.8,0,0,0-2.583,10.681Z" transform="translate(-1226.713 -149.932)" fill="#cce4ea"/>
        <path id="Path_43940" data-name="Path 43940" d="M1295.447,154.368s-.074,3.182-2.632,4.068c0,0,3.78-.041,3.889-2.256S1295.447,154.368,1295.447,154.368Z" transform="translate(-1255.438 -144.206)" fill="#a9cbd3"/>
        <path id="Path_43941" data-name="Path 43941" d="M1295.218,145.494s.107,3.154,2.007,3.674c1.967.537.364-3.624.1-3.659S1295.218,145.494,1295.218,145.494Z" transform="translate(-1256.924 -138.733)" fill="#a9cbd3"/>
        <path id="Path_43942" data-name="Path 43942" d="M1293.237,141.274a3.016,3.016,0,0,0-1.531,2.393c-.083.78-.074.933-.269.89a3.2,3.2,0,0,1-1.8-.89c-.9-.811,1.233-3.993,1.233-3.993h.393a1.945,1.945,0,0,1,1.774,1.148Z" transform="translate(-1253.334 -135.137)" fill="#a9cbd3"/>
        <path id="Path_43943" data-name="Path 43943" d="M1307.816,143.456a4.054,4.054,0,0,1,.531,2.13c.04.263,1.342-.653,1.437-1.15a11.416,11.416,0,0,0-.673-2.648Z" transform="translate(-1264.714 -136.445)" fill="#a9cbd3"/>
        <path id="Path_43944" data-name="Path 43944" d="M1273.5,136.829l2.529-.163a8.826,8.826,0,0,1,0,6.429c-1.344,3.564-4.031,5.254-7.079,4.933Z" transform="translate(-1240.681 -133.277)" fill="#cce4ea"/>
        <path id="Path_43945" data-name="Path 43945" d="M1271.824,135.365l2.529-.163a8.828,8.828,0,0,1,0,6.428c-1.345,3.564-4.032,5.254-7.079,4.933Z" transform="translate(-1239.645 -132.372)" fill="#007cb6"/>
        <path id="Path_43946" data-name="Path 43946" d="M1267.274,146.743a6.67,6.67,0,0,0,1.4,0,40.434,40.434,0,0,0,3.855-4.986,6.8,6.8,0,0,0,.445-5.927,1.21,1.21,0,0,0-.341-.335l-.809.052Z" transform="translate(-1239.645 -132.552)" fill="#00629e"/>
        <g id="Group_7970" data-name="Group 7970" transform="translate(0 10.039)">
          <path id="Path_43947" data-name="Path 43947" d="M1222.03,157.1s-12.443,15.456-13.371,16.523-1.114,2.135-3.248,2.088a19.963,19.963,0,0,0-5.476.789c-1.763.418-3.016.278-2.877-.743s2.181-2.32,2.181-2.32l-4.362-1.578a2.659,2.659,0,0,1,2.088-1.021c1.438-.047,3.8.6,4.5.6s1.346-.464,2.645-2.228,11.229-15.127,11.229-15.127Z" transform="translate(-1194.878 -154.091)" fill="#f8c6a3"/>
          <path id="Path_43948" data-name="Path 43948" d="M1217.547,159.1l-3.029,4.077a8.107,8.107,0,0,0,2.272,2.109,21.817,21.817,0,0,0,2.555-.216s-7.872,10.465-8.875,11.618-2.9.746-4.632,1.244-3.878,2.094-5.095,1.394h0c.275.584,1.375.616,2.819.274a19.965,19.965,0,0,1,5.475-.789c2.135.046,2.321-1.021,3.249-2.088.7-.808,8-9.854,11.506-14.208Z" transform="translate(-1198.505 -157.19)" fill="#f2a37c"/>
          <path id="Path_43949" data-name="Path 43949" d="M1200.453,200.224s-4.287-1.033-4.656-1.173c-.323-.122-.013-.513.231-.592a2.508,2.508,0,0,0-1.149.84l4.362,1.578A13.363,13.363,0,0,1,1200.453,200.224Z" transform="translate(-1194.878 -181.526)" fill="#f2a37c"/>
          <path id="Path_43950" data-name="Path 43950" d="M1206.974,179.386c-1.3,1.764-1.949,2.228-2.645,2.228s-3.063-.65-4.5-.6a3.033,3.033,0,0,0-.321.029,16.574,16.574,0,0,1,3.983.868,2.108,2.108,0,0,0,2.564-.715c.972-1.113,7.486-10.654,7.488-10.657C1210.769,174.267,1207.662,178.453,1206.974,179.386Z" transform="translate(-1197.74 -164.259)" fill="#fff" opacity="0.3"/>
        </g>
        <g id="Group_7971" data-name="Group 7971" transform="translate(17.831 2.217)">
          <path id="Path_43951" data-name="Path 43951" d="M1255.948,134.373c-.778-1.234-4.574-1.162-7.618,1.434-3.462,2.952-6.73,6.328-6.73,6.328s.451,1.65,2.991,3.885a6.921,6.921,0,0,0,4.751,1.83s4.648-4.961,6.161-7.55A6.8,6.8,0,0,0,1255.948,134.373Z" transform="translate(-1241.6 -133.597)" fill="#def1f8"/>
          <path id="Path_43952" data-name="Path 43952" d="M1244.592,152.157a6.92,6.92,0,0,0,4.75,1.83s4.648-4.961,6.161-7.551a6.645,6.645,0,0,0,.9-2.893l0-.021c-1.24,2.856-7.173,9.454-14.8,4.75C1241.6,148.272,1242.051,149.922,1244.592,152.157Z" transform="translate(-1241.6 -139.734)" fill="#cce4ea"/>
          <path id="Path_43953" data-name="Path 43953" d="M1264.522,135.041a8.49,8.49,0,0,0-5.326,1.541c-1.449,1.027-2.526,2.222,0,2.385a8.4,8.4,0,0,0,5.683-2.385C1265.483,135.927,1265.867,135.153,1264.522,135.041Z" transform="translate(-1251.542 -134.477)" fill="#e9f6fb"/>
          <path id="Path_43954" data-name="Path 43954" d="M1267.315,135.907a5.262,5.262,0,0,0-3.207,1.285c-.6.621,2.905.177,4-.291C1269.449,136.325,1269,135.72,1267.315,135.907Z" transform="translate(-1255.475 -135.004)" fill="#eff8fc"/>
        </g>
        <g id="Group_7972" data-name="Group 7972" transform="translate(42.102 3.015)">
          <path id="Path_43955" data-name="Path 43955" d="M1306.545,135.689a2.424,2.424,0,0,1,1.944.752,4.215,4.215,0,0,1,.3,3.7c-.566,1.792-1.35,1.82-1.514,1.787s.018-1.834-.615-2.476-1.459-1.5-1.459-1.5S1305.819,136.083,1306.545,135.689Z" transform="translate(-1305.198 -135.686)" fill="#def1f8"/>
          <path id="Path_43956" data-name="Path 43956" d="M1308.747,136.9a2.577,2.577,0,0,0-.258-.463,2.424,2.424,0,0,0-1.944-.752c-.726.394-1.348,2.258-1.348,2.258s.827.859,1.459,1.5a2.756,2.756,0,0,1,.494,1.592,6.9,6.9,0,0,0-.423-3,1.129,1.129,0,0,1,.6-1.319A1.525,1.525,0,0,1,1308.747,136.9Z" transform="translate(-1305.198 -135.686)" fill="#cce4ea"/>
          <path id="Path_43957" data-name="Path 43957" d="M1312.124,140.034c-.565-.334-.8.585-.6,1.593a7.516,7.516,0,0,1-.032,2.315c-.017.279.492-.1.855-1.154S1312.81,140.44,1312.124,140.034Z" transform="translate(-1309.064 -138.331)" fill="#e9f6fb"/>
        </g>
        <g id="Group_7973" data-name="Group 7973" transform="translate(35.76)">
          <path id="Path_43958" data-name="Path 43958" d="M1291.107,127.862a21.956,21.956,0,0,1-2.529,2.686s1.535,3.385,4.638,4.014a9,9,0,0,0,3.067-3.6,4.762,4.762,0,0,0-2.4-2.4C1291.861,127.445,1291.107,127.862,1291.107,127.862Z" transform="translate(-1288.578 -127.787)" fill="#f8c6a3"/>
          <path id="Path_43959" data-name="Path 43959" d="M1297.067,128.57c-2.024-1.124-2.778-.707-2.778-.707s-.12.164-.393.484l-.172.2a5.264,5.264,0,0,0,2.5,2.7,7.553,7.553,0,0,0,2.588.915,6.671,6.671,0,0,0,.653-1.19A4.761,4.761,0,0,0,1297.067,128.57Z" transform="translate(-1291.76 -127.787)" fill="#f2a37c"/>
          <path id="Path_43960" data-name="Path 43960" d="M1297.624,128.57c-2.024-1.124-2.778-.707-2.778-.707s-.074.1-.221.279a10.358,10.358,0,0,0,5.4,2.826A4.76,4.76,0,0,0,1297.624,128.57Z" transform="translate(-1292.317 -127.787)" fill="#dd8964"/>
        </g>
        <g id="Group_7977" data-name="Group 7977" transform="translate(13.481 5.227)">
          <path id="Path_43961" data-name="Path 43961" d="M1257.02,147.952a3.2,3.2,0,0,1-2.96,3.381c-2.639.215-4.47-.084-8.51-3.381s-6.14-4.922-9.856-4.3c-1.239.3-5.44,4.124-5.494,5.094s4.74,5.332,5.224,5.709,3.294-.352,6.212.873c2.533,1.063,4.94,3.543,10.513,2.681s8.093-6.654,7.291-10.059C1259.441,147.952,1258.741,147.1,1257.02,147.952Z" transform="translate(-1230.201 -142.744)" fill="#ea4d5f"/>
          <g id="Group_7974" data-name="Group 7974" transform="translate(1.612 1.729)">
            <path id="Path_43962" data-name="Path 43962" d="M1245.793,147.608a18.271,18.271,0,0,0-2.416-1.594,27.088,27.088,0,0,1-8.954,6.524c1.029,1.1,2.3,2.294,3.041,2.961A27.488,27.488,0,0,0,1245.793,147.608Z" transform="translate(-1234.424 -146.014)" fill="#eff8fc"/>
            <path id="Path_43963" data-name="Path 43963" d="M1273.956,168.869a11.233,11.233,0,0,0,3.408.4,17.416,17.416,0,0,0,.444-7.087,9.042,9.042,0,0,1-1.731-.727A16.855,16.855,0,0,1,1273.956,168.869Z" transform="translate(-1258.869 -155.563)" fill="#eff8fc"/>
            <path id="Path_43964" data-name="Path 43964" d="M1291.29,169.722a8.473,8.473,0,0,0,2.059-1.452,12.11,12.11,0,0,0-2.058-4.53,3.93,3.93,0,0,1-.583.094c-.432.035-.84.054-1.242.051A9.541,9.541,0,0,1,1291.29,169.722Z" transform="translate(-1268.46 -156.976)" fill="#eff8fc"/>
            <path id="Path_43965" data-name="Path 43965" d="M1259.1,162.78a19.649,19.649,0,0,0,3.5-7.206c-.451-.329-.931-.7-1.448-1.122l-.514-.418a20.513,20.513,0,0,1-5.206,7.257,9.129,9.129,0,0,1,1.806.539A19.847,19.847,0,0,1,1259.1,162.78Z" transform="translate(-1247.417 -150.973)" fill="#eff8fc"/>
            <path id="Path_43966" data-name="Path 43966" d="M1298.616,158.184a3.155,3.155,0,0,1-.835,1.423,7.561,7.561,0,0,1,2.769,2.318,9.439,9.439,0,0,0,.628-1.864A8.1,8.1,0,0,0,1298.616,158.184Z" transform="translate(-1273.601 -153.539)" fill="#eff8fc"/>
            <path id="Path_43967" data-name="Path 43967" d="M1299.09,154.535a4.045,4.045,0,0,1-.856,2.414h0a3.92,3.92,0,0,0,1.149-1.917s1.667.531,2.127-.5l-1.224-.366A3.4,3.4,0,0,0,1299.09,154.535Z" transform="translate(-1273.881 -151.057)" fill="#242357" opacity="0.2" style="mix-blend-mode: multiply;isolation: isolate"/>
          </g>
          <g id="Group_7975" data-name="Group 7975" transform="translate(25.201)">
            <path id="Path_43968" data-name="Path 43968" d="M1297.848,141.713c.52-.217,1.963-.477,2.656.245a2.685,2.685,0,0,1,.5,2.857,7.942,7.942,0,0,1-.729,1.876,2.4,2.4,0,0,1-2.42,0,4.833,4.833,0,0,1-1.619-3.607A3.892,3.892,0,0,1,1297.848,141.713Z" transform="translate(-1296.234 -141.483)" fill="#ea4d5f"/>
          </g>
          <g id="Group_7976" data-name="Group 7976" transform="translate(25.256 0.105)">
            <path id="Path_43969" data-name="Path 43969" d="M1300.519,150.023a6.967,6.967,0,0,0-4.141-2.666,5.169,5.169,0,0,0,.322,1.2,8.265,8.265,0,0,1,2.953,2.04,2.051,2.051,0,0,0,.709-.274S1300.425,150.221,1300.519,150.023Z" transform="translate(-1296.379 -145.22)" fill="#eff8fc"/>
            <path id="Path_43970" data-name="Path 43970" d="M1299.34,141.757a2.659,2.659,0,0,0-.4.125,4.429,4.429,0,0,0-.942.61,7.745,7.745,0,0,1,4.1,2.469,3.925,3.925,0,0,0,.164-1.424A7.126,7.126,0,0,0,1299.34,141.757Z" transform="translate(-1297.378 -141.757)" fill="#eff8fc"/>
          </g>
          <path id="Path_43971" data-name="Path 43971" d="M1297.456,144.874c-.267-1.542.284-2.955,1.046-3.249a3.147,3.147,0,0,0-.653.176,3.892,3.892,0,0,0-1.614,1.371,4.833,4.833,0,0,0,1.619,3.607,2.7,2.7,0,0,0,1.187.319A2.532,2.532,0,0,1,1297.456,144.874Z" transform="translate(-1271.033 -141.571)" fill="#242357" opacity="0.2" style="mix-blend-mode: multiply;isolation: isolate"/>
          <path id="Path_43972" data-name="Path 43972" d="M1251.76,159.341c-4.86-.106-6.371-1.834-10.142-3.513-1.826-.813-4.812-.622-5.549-.959a28.654,28.654,0,0,1-4.8-3.983c-.205-.6,2.349-3.539,2.349-3.539h0c-1.59,1.291-3.385,3.134-3.42,3.766-.054.969,4.74,5.332,5.224,5.709s3.294-.352,6.212.873c2.533,1.063,4.94,3.543,10.513,2.681a8.516,8.516,0,0,0,5.723-3.605A6.92,6.92,0,0,1,1251.76,159.341Z" transform="translate(-1230.201 -145.109)" fill="#242357" opacity="0.2" style="mix-blend-mode: multiply;isolation: isolate"/>
          <path id="Path_43973" data-name="Path 43973" d="M1244.409,145.24a7.979,7.979,0,0,0-3.249-.291,6.357,6.357,0,0,0-2.454,2.014c-1.185,1.458,1.757-.084,5.887,1.638s9.447,4.509,10.507,4.166-2.035-1.472-4.462-3.429C1248.616,147.708,1246.138,145.765,1244.409,145.24Z" transform="translate(-1235.296 -143.588)" fill="#fff" opacity="0.15"/>
          <path id="Path_43974" data-name="Path 43974" d="M1305.29,142.989c-.707-.464-1,.785-.933,2.128s.227,2.4.613,2.231a4.338,4.338,0,0,0,.967-2.754C1305.891,143.669,1305.644,143.222,1305.29,142.989Z" transform="translate(-1276.05 -142.353)" fill="#fff" opacity="0.15"/>
        </g>
        <g id="Group_7978" data-name="Group 7978" transform="translate(32.107 0.509)">
          <path id="Path_43975" data-name="Path 43975" d="M1284.514,129.494a1.766,1.766,0,0,0-1.456-.353,11.611,11.611,0,0,0-3.979,2.464c-.19.379-.136,2.014,1.832,4.295a8.848,8.848,0,0,0,3.474,2.211c.505.158.21-2.831,2.811-4.042,0,0,.139-.564-1.117-1.1a3.945,3.945,0,0,1-2.278-2.7Z" transform="translate(-1279.007 -129.119)" fill="#def1f8"/>
          <path id="Path_43976" data-name="Path 43976" d="M1283.8,130.261l.714-.767a1.766,1.766,0,0,0-1.456-.353,11.611,11.611,0,0,0-3.979,2.464c-.19.379-.136,2.014,1.832,4.295-1.1-1.567-.953-3.86-.087-4.526s2.133-1.686,2.567-.577,2.191,1.9,2.191,1.9A3.7,3.7,0,0,1,1283.8,130.261Z" transform="translate(-1279.007 -129.119)" fill="#cce4ea"/>
          <path id="Path_43977" data-name="Path 43977" d="M1289.131,140.476c.451-.253,1.52.057.734.577a7.036,7.036,0,0,0-2.048,3.144c-.138.4-1.068.047-1.815-.423a3.358,3.358,0,0,1-1.491-1.479c-.069-.219,1.583.871,2.548.058S1288.224,140.984,1289.131,140.476Z" transform="translate(-1282.41 -136.086)" fill="#e9f6fb"/>
        </g>
      </g>
      <g id="Group_7993" data-name="Group 7993" transform="translate(41.969)">
        <g id="Group_7980" data-name="Group 7980" transform="translate(2.952 20.562)">
          <path id="Path_43978" data-name="Path 43978" d="M1279.325,115.615a3.525,3.525,0,0,0,.738,3.4c.468.468,1.427.763,1.747-.246a2.89,2.89,0,0,0,1.948,1.627,1.6,1.6,0,0,0,1.94-.692l-2.338-3.592Z" transform="translate(-1279.196 -115.615)" fill="#d65132"/>
          <path id="Path_43979" data-name="Path 43979" d="M1279.327,115.615a4.6,4.6,0,0,0-.113,1.435,2.864,2.864,0,0,0,3.235.448,4.412,4.412,0,0,0,2.659,2.778h0a1.428,1.428,0,0,0,.592-.576l-2.337-3.592Z" transform="translate(-1279.198 -115.615)" fill="#ba422b"/>
        </g>
        <path id="Path_43980" data-name="Path 43980" d="M1299.88,79.009c3.16,0,7.032,2.225,7.922,5.7s.623,6.365,1.068,8.367a6.783,6.783,0,0,1-.091,4.117,6.275,6.275,0,0,1-.364.715,7.873,7.873,0,0,1-5.241,3.324,15.463,15.463,0,0,1-8.656-.661c-3.427-1.424-5.721-3-7.19-6.828a10.357,10.357,0,0,1,3.917-12.151A14.37,14.37,0,0,1,1299.88,79.009Z" transform="translate(-1280.88 -72.406)" fill="#f8c6a3"/>
        <path id="Path_43981" data-name="Path 43981" d="M1290.251,97.271c.067.607.622,1.183,1.7.786s3.078-2.244,3.466-7.136Z" transform="translate(-1283.08 -79.783)" fill="#f2a37c"/>
        <path id="Path_43982" data-name="Path 43982" d="M1310.814,79.009a12.546,12.546,0,0,0-4,.464c-1.286.8-2.437,1.475-2.437,1.475a10.756,10.756,0,0,0,6.784,5.629c2.051.442,4.509.44,5.42-.818.855-1.179-.454-2.394-.454-2.394a5.206,5.206,0,0,0,2.465.872C1317.484,81.037,1313.828,79.009,1310.814,79.009Z" transform="translate(-1291.813 -72.406)" fill="#f2a37c"/>
        <circle id="Ellipse_541" data-name="Ellipse 541" cx="3.495" cy="3.495" r="3.495" transform="translate(9.335 17.581)" fill="#ee9681" opacity="0.5"/>
        <path id="Path_43983" data-name="Path 43983" d="M1336.371,111.637a3.5,3.5,0,0,0,3.175,3.479,6.955,6.955,0,0,0,.043-3.984,20.377,20.377,0,0,1-.32-2.936A3.494,3.494,0,0,0,1336.371,111.637Z" transform="translate(-1311.599 -90.466)" fill="#ee9681" opacity="0.5"/>
        <path id="Path_43984" data-name="Path 43984" d="M1309.19,107.179a3.088,3.088,0,0,1-1.876.643,3.424,3.424,0,0,1-3.279-3.479.788.788,0,0,1-.109-.05c-.091-.053-.181-.111-.27-.168,0,.047-.007.092-.007.139,0,.023,0,.046,0,.069a.937.937,0,0,0-.4-.069,1.974,1.974,0,0,0-1,.245c0-.082.013-.162.013-.245v-.012a1.508,1.508,0,0,0-.154.164.538.538,0,0,1-.245.187,4.116,4.116,0,0,1-8.218-.34c0-.114.008-.227.017-.339a.742.742,0,0,1-.145-.089l-.211-.164c-.008.062-.014.125-.02.187l-5.87-.876.307,1.692,5.575.134a4.5,4.5,0,0,0,8.857.414,2.445,2.445,0,0,1,1.111-.266,1.218,1.218,0,0,1,.453.077,3.749,3.749,0,0,0,3.593,3.168,3.454,3.454,0,0,0,1.943-.6Z" transform="translate(-1281.328 -87.243)" fill="#f2a37c"/>
        <path id="Path_43985" data-name="Path 43985" d="M1339.508,113.975a3.091,3.091,0,0,1-1.876.643,3.028,3.028,0,0,1-1.116-.216,3.553,3.553,0,0,0-.069.384,3.414,3.414,0,0,0,1.185.215,3.455,3.455,0,0,0,1.943-.6l-.045-.282c0-.031-.01-.061-.015-.092Z" transform="translate(-1311.645 -94.039)" fill="#eb7c74"/>
        <path id="Path_43986" data-name="Path 43986" d="M1327.581,112.6a5.113,5.113,0,0,1-1.677,5.092c-2.134,1.935-6.04,2.7-8.6,2.546a14.96,14.96,0,0,0,4.8-.25,7.873,7.873,0,0,0,5.241-3.324,6.239,6.239,0,0,0,.364-.715,6.786,6.786,0,0,0,.091-4.117,17.068,17.068,0,0,1-.288-2.461l-.062-.044C1327.546,109.88,1327.338,110.783,1327.581,112.6Z" transform="translate(-1299.807 -91.164)" fill="#fff" opacity="0.3"/>
        <path id="Path_43987" data-name="Path 43987" d="M1307.187,111.794a3.407,3.407,0,0,0,.027-.38,4.119,4.119,0,0,1-3.958-3.518,3.536,3.536,0,0,0-.373.071A4.5,4.5,0,0,0,1307.187,111.794Z" transform="translate(-1290.892 -90.279)" fill="#eb7c74"/>
        <path id="Path_43988" data-name="Path 43988" d="M1300.313,108c0,.4-.506.718-1.131.718s-1.131-.322-1.131-.718.506-.718,1.131-.718S1300.313,107.6,1300.313,108Z" transform="translate(-1287.904 -89.9)" fill="#fff" opacity="0.3"/>
        <path id="Path_43989" data-name="Path 43989" d="M1307.98,101.691a3.948,3.948,0,0,0,3.832-3.839c.271-2.528-1.578-4.96-4.678-4.042s-3.168,4.608-2.231,6.041A3.8,3.8,0,0,0,1307.98,101.691Z" transform="translate(-1291.813 -81.448)" opacity="0.7" fill="url(#linear-gradient-2)" style="mix-blend-mode: multiply;isolation: isolate"/>
        <path id="Path_43990" data-name="Path 43990" d="M1334.344,93.789a3.569,3.569,0,0,0-2.212.009c-2.845.843-2.907,4.229-2.047,5.544a3.482,3.482,0,0,0,2.825,1.688,3.366,3.366,0,0,0,2.242-.863A34.342,34.342,0,0,0,1334.344,93.789Z" transform="translate(-1307.412 -81.451)" opacity="0.7" fill="url(#linear-gradient-3)" style="mix-blend-mode: multiply;isolation: isolate"/>
        <g id="Group_7981" data-name="Group 7981">
          <path id="Path_43991" data-name="Path 43991" d="M1277.551,77.129a3.735,3.735,0,0,1,1.082,2.1c.117.822,1.432,1.15,3.206-1.353a13.048,13.048,0,0,0,2.183-7.593,20.285,20.285,0,0,0,5.582,4.16c3.25,1.566,5.168,1.147,6.108.75a1.9,1.9,0,0,0,.744-2.942,7.525,7.525,0,0,0,4.7,1.135c3.093-.117,4.346-1.605,3.484-2.741s-2.516-2.026-4.909-2.747c0,0,2.756-.229,2.6-1.756s-4.054-5.254-11.494-4.224c-8.36,1.157-9.621,5.43-9.621,5.43a7.7,7.7,0,0,0-3.662-.651c-1.774.014-2.941.725-3.059,1.126s.139.632.948.942a17.3,17.3,0,0,1,1.834.785,11.041,11.041,0,0,0-3.957,2.238c-2,1.722-1.972,3.3-1.762,3.523.393.417,1.422-.565,2.909-.761a9.44,9.44,0,0,0-.756,4.317C1273.983,80.86,1277.551,77.129,1277.551,77.129Z" transform="translate(-1271.461 -61.737)" fill="#e26644"/>
          <path id="Path_43992" data-name="Path 43992" d="M1308.167,76.5c-.954.165-1.637.959-.325,1.428a32.868,32.868,0,0,1,7.425,3.8c2.078,1.685,3.716,2.012,3.2.392a8.675,8.675,0,0,0-3.894-4.5A9.826,9.826,0,0,0,1308.167,76.5Z" transform="translate(-1293.508 -70.784)" fill="#ee7249"/>
          <path id="Path_43993" data-name="Path 43993" d="M1314.577,86.689c-2.17-.138-6.251-1.983-10.23-6.809a.2.2,0,0,0-.344.148c.049.381.105.883.14,1.426a20.291,20.291,0,0,0,5.582,4.16A8.789,8.789,0,0,0,1314.577,86.689Z" transform="translate(-1291.583 -72.912)" fill="#d65132"/>
          <path id="Path_43994" data-name="Path 43994" d="M1286.264,65.206c-4.286,1.693-5.051,4.283-5.051,4.283a7.7,7.7,0,0,0-3.662-.651c-1.774.014-2.941.725-3.059,1.126s.139.632.948.942a17.3,17.3,0,0,1,1.834.785,11.042,11.042,0,0,0-3.957,2.238c-2,1.722-1.972,3.3-1.762,3.523.393.417,1.422-.565,2.909-.761a9.44,9.44,0,0,0-.756,4.317c.274,2,3.842-1.733,3.842-1.733a4.054,4.054,0,0,1,.8,1.15c.213-.39.37-.775.224-1a5.67,5.67,0,0,1-.317-4.989,4.99,4.99,0,0,1,2.738-3.2,3.775,3.775,0,0,1,1.712-.373.187.187,0,0,0,.162-.085.23.23,0,0,0-.009-.187,3.5,3.5,0,0,1-.015-2.124C1283.226,67.321,1284.037,66.339,1286.264,65.206Z" transform="translate(-1271.461 -63.882)" fill="#d65132"/>
          <path id="Path_43995" data-name="Path 43995" d="M1289.67,105.437a3.437,3.437,0,0,1,.222.81c.065.453.51.764,1.182.53a.6.6,0,0,1-.592-.145.676.676,0,0,1-.077-.407l1.516.036,0,0a5.211,5.211,0,0,0,.613-.621l-1.351-.1Z" transform="translate(-1282.721 -88.759)" fill="#d65132"/>
          <path id="Path_43996" data-name="Path 43996" d="M1339.167,86.793c2.025-.077,3.255-.742,3.626-1.51-1.7,1.4-5.655.368-7.332-.421a25.52,25.52,0,0,1-2.525-1.436,7.014,7.014,0,0,1,1.533,2.232A7.524,7.524,0,0,0,1339.167,86.793Z" transform="translate(-1309.475 -75.149)" fill="#d65132"/>
          <path id="Path_43997" data-name="Path 43997" d="M1341.947,71.546a2.139,2.139,0,0,0-.532-1.064c.906,1.316-.687,1.681-1.8,1.9s-4.084.389-4.084.389,2.917.361,3.816.528C1339.348,73.3,1342.1,73.073,1341.947,71.546Z" transform="translate(-1311.08 -67.145)" fill="#d65132"/>
          <path id="Path_43998" data-name="Path 43998" d="M1281.075,76.632c-1.106-.283-1.1-.821-.57-1.06-.669.243-1.08.573-1.147.8-.117.4.139.632.948.942a17.26,17.26,0,0,1,1.834.785,9.691,9.691,0,0,1,1.679-.336A16.811,16.811,0,0,0,1281.075,76.632Z" transform="translate(-1276.328 -70.292)" fill="#ba422b"/>
          <path id="Path_43999" data-name="Path 43999" d="M1272.916,92.322c-.918.449-1.447.7-1.373.257a1.278,1.278,0,0,0,.012.978c.394.417,1.422-.565,2.909-.761a5.76,5.76,0,0,1,.879-1.545A23.612,23.612,0,0,0,1272.916,92.322Z" transform="translate(-1271.462 -79.987)" fill="#ba422b"/>
          <path id="Path_44000" data-name="Path 44000" d="M1317.756,63.341c-2.992-.851-9.226-.371-11.852,2.058-.858.793,1.417.287,4.293.33a47.424,47.424,0,0,1,8.047.952c2.883.637,4.793.462,4.592-.275S1320.661,64.168,1317.756,63.341Z" transform="translate(-1292.646 -62.488)" fill="#ee7249"/>
          <path id="Path_44001" data-name="Path 44001" d="M1344.86,81.451c.242-.611-1.025-1.935-2.911-2.666s-4.606-1.236-5.214-1.006c-.674.256,1.392,3.085,4.446,3.995C1343.829,82.563,1344.655,81.967,1344.86,81.451Z" transform="translate(-1311.745 -71.622)" fill="#ee7249"/>
          <path id="Path_44002" data-name="Path 44002" d="M1296.788,83.626c-.4-.54-1.891.061-2.792,1.6-1.151,1.969-.719,5.032.089,5.315s1.956-1.622,2.374-3.228S1297.138,84.1,1296.788,83.626Z" transform="translate(-1284.962 -75.152)" fill="#ee7249"/>
          <path id="Path_44003" data-name="Path 44003" d="M1282.91,75.654c-.407.126-.108.606.592.62s3.4-.138,3.365-.39S1284.683,75.1,1282.91,75.654Z" transform="translate(-1278.427 -70.193)" fill="#e26644"/>
          <path id="Path_44004" data-name="Path 44004" d="M1272.825,89.019c.1.124.661-.071,1.182-.583s2.035-2.249,2.163-2.469-1.068.19-2.163,1.229S1272.715,88.886,1272.825,89.019Z" transform="translate(-1272.288 -76.685)" fill="#e26644"/>
          <path id="Path_44005" data-name="Path 44005" d="M1343.871,79.305c1.128.279,3.756.783,5.27,2.645a8.51,8.51,0,0,0-2.279-1.409A29.813,29.813,0,0,0,1343.871,79.305Z" transform="translate(-1316.236 -72.6)" fill="#f49a6e"/>
          <path id="Path_44006" data-name="Path 44006" d="M1315.638,64.387a19.5,19.5,0,0,1,8.817,0,8.253,8.253,0,0,1,3.825,2.18,18.516,18.516,0,0,0-5.049-1.593,14.721,14.721,0,0,1,2.632.345,10.766,10.766,0,0,0-4.9-1.2A23.534,23.534,0,0,0,1315.638,64.387Z" transform="translate(-1298.778 -63.063)" fill="#f49a6e"/>
          <path id="Path_44007" data-name="Path 44007" d="M1325.655,79.808a8.39,8.39,0,0,1,4.009,4.159,13.02,13.02,0,0,0-1.813-2.3A19.07,19.07,0,0,0,1325.655,79.808Z" transform="translate(-1304.973 -72.911)" fill="#f49a6e"/>
          <path id="Path_44008" data-name="Path 44008" d="M1298.738,85.67a10.342,10.342,0,0,1-1.935,5.843,4.83,4.83,0,0,1,0-2.247,9.166,9.166,0,0,0,.188,1.4A11.578,11.578,0,0,0,1298.738,85.67Z" transform="translate(-1287.052 -76.536)" fill="#f49a6e"/>
        </g>
        <path id="Path_44009" data-name="Path 44009" d="M1310.2,92.061c-.052-.485-1.081-.953-2.548-.129a3.189,3.189,0,0,0-1.879,2.5c.1.386,1.436-.175,2.368-.54C1309.708,93.273,1310.351,93.5,1310.2,92.061Z" transform="translate(-1292.668 -80.13)" fill="#f2a37c" opacity="0.5" style="mix-blend-mode: multiply;isolation: isolate"/>
        <path id="Path_44010" data-name="Path 44010" d="M1337.436,95.2c-.065-.45-.146-.912-.245-1.387a3.7,3.7,0,0,0-1.271-1.124c-1.468-.824-2.017-.111-2.024.378-.014,1.1.955,1.26,1.873,1.575A6.275,6.275,0,0,0,1337.436,95.2Z" transform="translate(-1310.068 -80.642)" fill="#f2a37c" opacity="0.5" style="mix-blend-mode: multiply;isolation: isolate"/>
        <g id="Group_7982" data-name="Group 7982" transform="translate(13.088 10.77)">
          <path id="Path_44011" data-name="Path 44011" d="M1310.374,90.54c-.067-.6-1.258-.9-2.725-.08a3.189,3.189,0,0,0-1.879,2.5c.1.386,1.436-.176,2.368-.541C1309.708,91.8,1310.512,91.778,1310.374,90.54Z" transform="translate(-1305.757 -89.958)" fill="#d65132"/>
          <path id="Path_44012" data-name="Path 44012" d="M1308.695,92.335c-1.356.441-2.111.623-2.049.129s.793-1.08,1-1.191a3.189,3.189,0,0,0-1.879,2.5c.1.386,1.436-.176,2.368-.541,1.571-.615,2.375-.638,2.236-1.877C1310.3,91.667,1310.05,91.895,1308.695,92.335Z" transform="translate(-1305.757 -90.771)" fill="#ba422b"/>
        </g>
        <g id="Group_7983" data-name="Group 7983" transform="translate(23.827 11.138)">
          <path id="Path_44013" data-name="Path 44013" d="M1333.9,91.676c.006-.489.556-1.2,2.024-.378s1.759,2,1.656,2.385-.859-.107-1.807-.432C1334.85,92.936,1333.881,92.78,1333.9,91.676Z" transform="translate(-1333.896 -90.921)" fill="#d65132"/>
          <path id="Path_44014" data-name="Path 44014" d="M1337.013,93.247c-.41-.247-1.536-.677-2.225-1.113s-.482-1.091.063-1.2a.8.8,0,0,0-.955.748c-.014,1.1.955,1.261,1.873,1.575.947.325,1.7.818,1.807.432a1.369,1.369,0,0,0-.124-.784C1337.57,93.152,1337.422,93.495,1337.013,93.247Z" transform="translate(-1333.896 -90.925)" fill="#ba422b"/>
        </g>
        <g id="Group_7984" data-name="Group 7984" transform="translate(22.321 12.733)">
          <path id="Path_44015" data-name="Path 44015" d="M1333.614,102.979a3.949,3.949,0,1,1,3.665-3.939A3.813,3.813,0,0,1,1333.614,102.979Zm0-7.5a3.569,3.569,0,1,0,3.283,3.557A3.433,3.433,0,0,0,1333.614,95.483Z" transform="translate(-1329.949 -95.101)" fill="#19313a"/>
        </g>
        <g id="Group_7985" data-name="Group 7985" transform="translate(12.752 13.993)">
          <circle id="Ellipse_542" data-name="Ellipse 542" cx="2.837" cy="2.837" r="2.837" transform="translate(0 5.521) rotate(-76.674)" fill="#fff"/>
          <path id="Path_44016" data-name="Path 44016" d="M1308.071,105.286a3.2,3.2,0,0,1-.355-3.935l-.1-.119a2.836,2.836,0,1,0,4.2,3.494A2.94,2.94,0,0,1,1308.071,105.286Z" transform="translate(-1305.811 -100.152)" fill="#bac4ca" opacity="0.2"/>
          <path id="Path_44017" data-name="Path 44017" d="M1306.311,102.954a3.188,3.188,0,0,1,1.707-2.672,2.815,2.815,0,0,1,3.71,1.124,1.019,1.019,0,0,0-.18-.719,2.819,2.819,0,0,0-3.436-.994A2.636,2.636,0,0,0,1306.311,102.954Z" transform="translate(-1305.695 -99.075)" fill="#19313a"/>
          <path id="Path_44018" data-name="Path 44018" d="M1315.764,104.428a2.808,2.808,0,0,0-.121-.817,1.35,1.35,0,0,0-.9-.909,1.634,1.634,0,0,0-1.577.319,2.573,2.573,0,0,0-.472,3.1,1.786,1.786,0,0,0,.82.647,1.344,1.344,0,0,0,1.394-.322A2.822,2.822,0,0,0,1315.764,104.428Z" transform="translate(-1309.514 -101.014)" fill="#19313a"/>
          <path id="Path_44019" data-name="Path 44019" d="M1314.493,111.4a1.652,1.652,0,0,0,.335.178,1.343,1.343,0,0,0,1.394-.322,2.849,2.849,0,0,0,.6-.859A3,3,0,0,1,1314.493,111.4Z" transform="translate(-1310.823 -105.818)" fill="#002030"/>
          <path id="Path_44020" data-name="Path 44020" d="M1317.938,103.7a.67.67,0,0,0-1.146.4c-.107.746.4,1.563,1.018,1.563.408,0,.6-.388.542-.97A1.523,1.523,0,0,0,1317.938,103.7Z" transform="translate(-1312.235 -101.562)" fill="#fff"/>
        </g>
        <g id="Group_7986" data-name="Group 7986" transform="translate(20.548 16.671)">
          <path id="Path_44021" data-name="Path 44021" d="M1327.4,105.886a.48.48,0,0,0-.163-.3.828.828,0,0,0-.562-.16,1.95,1.95,0,0,0-1.057.274.521.521,0,0,0-.249.374l-.07.483a2.366,2.366,0,0,1,1.393-.437c.66,0,.8.364.8.364Z" transform="translate(-1325.302 -105.42)" fill="#19313a"/>
          <path id="Path_44022" data-name="Path 44022" d="M1326.678,105.422a1.947,1.947,0,0,0-1.057.274.521.521,0,0,0-.249.374l-.07.483a2.366,2.366,0,0,1,1.393-.437c.66,0,.8.364.8.364-.235-.727-1.317-.465-1.36-.645S1326.267,105.457,1326.678,105.422Z" transform="translate(-1325.302 -105.421)" fill="#002030"/>
        </g>
        <g id="Group_7987" data-name="Group 7987" transform="translate(6.089 15.392)">
          <path id="Path_44023" data-name="Path 44023" d="M1293.561,102.986l-6.144-.917.307,1.692,5.73.137S1293.544,103.358,1293.561,102.986Z" transform="translate(-1287.417 -102.069)" fill="#19313a"/>
          <path id="Path_44024" data-name="Path 44024" d="M1293.485,103.7h0l-4.682-.633a2.1,2.1,0,0,0-.36-.843l-1.026-.153.307,1.692,5.73.137S1293.467,103.818,1293.485,103.7Z" transform="translate(-1287.417 -102.069)" fill="#002030"/>
        </g>
        <g id="Group_7988" data-name="Group 7988" transform="translate(21.031 18.273)">
          <path id="Path_44025" data-name="Path 44025" d="M1327,109.671a2.056,2.056,0,0,0-.332,1.992,1.53,1.53,0,0,0,1.469,1.117c.7.024,1.079-.382,1.062-.9-.015-.449-.555-.458-1.062-1.074C1327.67,110.238,1327.571,109.4,1327,109.671Z" transform="translate(-1326.569 -109.619)" fill="#ee9681"/>
          <path id="Path_44026" data-name="Path 44026" d="M1327.957,113.708a1.884,1.884,0,0,1-1.339-1.854,2.6,2.6,0,0,0,.056,1.191,1.53,1.53,0,0,0,1.469,1.117c.7.024,1.079-.382,1.061-.9C1329.086,113.616,1328.7,113.846,1327.957,113.708Z" transform="translate(-1326.572 -111.001)" fill="#eb7c74"/>
          <path id="Path_44027" data-name="Path 44027" d="M1331.59,114.483a.391.391,0,0,1-.055-.006.469.469,0,0,1-.161-.06.656.656,0,0,1-.283-.355c-.02-.056-.074-.235.048-.2a.19.19,0,0,1,.069.04c.058.046.118.088.176.132.1.078.236.125.334.206a.15.15,0,0,1,.059.116.14.14,0,0,1-.09.116A.231.231,0,0,1,1331.59,114.483Z" transform="translate(-1329.347 -112.238)" fill="#f8c6a3"/>
        </g>
        <g id="Group_7989" data-name="Group 7989" transform="translate(11.936 12.172)">
          <path id="Path_44028" data-name="Path 44028" d="M1307.235,102.63a4.5,4.5,0,1,1,4.5-4.5A4.5,4.5,0,0,1,1307.235,102.63Zm0-8.618a4.118,4.118,0,1,0,4.118,4.118A4.123,4.123,0,0,0,1307.235,94.013Z" transform="translate(-1302.736 -93.631)" fill="#19313a"/>
        </g>
        <g id="Group_7990" data-name="Group 7990" transform="translate(15.169 22.445)">
          <path id="Path_44029" data-name="Path 44029" d="M1316.271,122.017a8.88,8.88,0,0,1-3.191-1.085c-.946-.5-1.67-.572-1.837.158-.243,1.056.792,3.746,4.266,4.267a6.024,6.024,0,0,0,4.735-1.043,2.935,2.935,0,0,0,.981-1.381c.2-.636-.051-1.4-1.617-1.1A10.938,10.938,0,0,1,1316.271,122.017Z" transform="translate(-1311.209 -120.549)" fill="#c9434d"/>
          <path id="Path_44030" data-name="Path 44030" d="M1315.793,121.951a9.953,9.953,0,0,1-2.713-1.019c-.946-.5-1.67-.572-1.837.158a3.935,3.935,0,0,0,2.545,3.762A3.033,3.033,0,0,0,1315.8,122C1315.8,121.983,1315.793,121.967,1315.793,121.951Z" transform="translate(-1311.209 -120.549)" fill="#7c1423"/>
          <path id="Path_44031" data-name="Path 44031" d="M1322.5,122.779h0a10.822,10.822,0,0,1-2.762.081,8.415,8.415,0,0,1-2.922-.948h0a2.94,2.94,0,0,0,.282,1.111,4.553,4.553,0,0,0,2.246.979,4.371,4.371,0,0,0,2.612-.291A6.768,6.768,0,0,0,1322.5,122.779Z" transform="translate(-1314.675 -121.392)" fill="#fff"/>
          <path id="Path_44032" data-name="Path 44032" d="M1318.837,122.987a7.8,7.8,0,0,0,3.55.012c.067-.127.113-.22.113-.22h0a10.822,10.822,0,0,1-2.762.081,8.415,8.415,0,0,1-2.922-.948h0a2.94,2.94,0,0,0,.282,1.111,3.407,3.407,0,0,0,1.469.787,1.977,1.977,0,0,1-1.138-1.038C1317.365,122.483,1317.718,122.7,1318.837,122.987Z" transform="translate(-1314.675 -121.392)" fill="#bac4ca" opacity="0.2"/>
          <path id="Path_44033" data-name="Path 44033" d="M1319.089,130.045c-.3-.649-2.079-2.312-5.66-1.858a5.285,5.285,0,0,0,3.453,1.845A7.338,7.338,0,0,0,1319.089,130.045Z" transform="translate(-1312.581 -125.224)" fill="#ec6469"/>
          <path id="Path_44034" data-name="Path 44034" d="M1318.584,130.1a7.751,7.751,0,0,1-2.977-.765c-.955-.637-.731-1.212.1-1.15a8.561,8.561,0,0,0-2.283,0,5.285,5.285,0,0,0,3.453,1.845A7.6,7.6,0,0,0,1318.584,130.1Z" transform="translate(-1312.581 -125.226)" fill="#db545b"/>
          <path id="Path_44035" data-name="Path 44035" d="M1320.83,129.318a3.863,3.863,0,0,0-1.713-.489c-.831.084.833.751,1.557,1.015C1321.6,130.182,1321.71,129.775,1320.83,129.318Z" transform="translate(-1315.959 -125.666)" fill="#fff" opacity="0.2"/>
          <path id="Path_44036" data-name="Path 44036" d="M1326.281,131.887c-.141-.092-.328-.088-.328.024,0,.083.108.22.328.287S1326.508,132.035,1326.281,131.887Z" transform="translate(-1320.326 -127.52)" fill="#fff" opacity="0.2"/>
        </g>
        <g id="Group_7991" data-name="Group 7991" transform="translate(22.947 14.4)">
          <path id="Path_44037" data-name="Path 44037" d="M1335.995,104.187c.619-.677.573-2.977-.3-3.656a2.474,2.474,0,1,0,.3,3.656Z" transform="translate(-1331.67 -99.81)" fill="#fff"/>
          <path id="Path_44038" data-name="Path 44038" d="M1335.995,104.786a1.831,1.831,0,0,0,.362-.908,1.952,1.952,0,0,1-2.834.858c-1.338-.891-1.166-2.954-.626-3.747a2.472,2.472,0,1,0,3.1,3.8Z" transform="translate(-1331.67 -100.409)" fill="#bac4ca" opacity="0.2"/>
          <path id="Path_44039" data-name="Path 44039" d="M1331.693,102.671a2.648,2.648,0,0,1,1.416-2.465,2.848,2.848,0,0,1,2.494.09,1.1,1.1,0,0,1,.441.482,1.2,1.2,0,0,0-.467-.88,2.433,2.433,0,0,0-2.381-.235A2.382,2.382,0,0,0,1331.693,102.671Z" transform="translate(-1331.588 -99.469)" fill="#19313a"/>
          <path id="Path_44040" data-name="Path 44040" d="M1338.976,102.441a1.434,1.434,0,0,0-1.341.285,2.244,2.244,0,0,0-.411,2.706,1.46,1.46,0,0,0,1.491.627,1.391,1.391,0,0,0,.878-1.029,3.049,3.049,0,0,0-.115-2.124A.843.843,0,0,0,1338.976,102.441Z" transform="translate(-1334.898 -101.267)" fill="#19313a"/>
          <path id="Path_44041" data-name="Path 44041" d="M1340.92,108.428a3.113,3.113,0,0,0,.111-.555,2.129,2.129,0,0,1-1.942,1.439,1.411,1.411,0,0,0,.954.145A1.391,1.391,0,0,0,1340.92,108.428Z" transform="translate(-1336.226 -104.666)" fill="#002030"/>
          <path id="Path_44042" data-name="Path 44042" d="M1341.263,103.117a.586.586,0,0,0-1,.353c-.094.652.351,1.367.891,1.367.357,0,.524-.339.474-.848A1.331,1.331,0,0,0,1341.263,103.117Z" transform="translate(-1336.943 -101.621)" fill="#fff"/>
        </g>
        <g id="Group_7992" data-name="Group 7992" transform="translate(1.454 14.977)">
          <path id="Path_44043" data-name="Path 44043" d="M1279.907,101.4a3.386,3.386,0,0,0-3.85.415,3.814,3.814,0,0,0,1.084,5.592,3.408,3.408,0,0,0,3.794-.345C1281.208,104.736,1281.218,102.253,1279.907,101.4Z" transform="translate(-1275.272 -100.981)" fill="#f8c6a3"/>
          <path id="Path_44044" data-name="Path 44044" d="M1281.045,110.46a1.091,1.091,0,1,1,1.09,1.09A1.091,1.091,0,0,1,1281.045,110.46Z" transform="translate(-1278.842 -106.168)" fill="#dd8964"/>
          <path id="Path_44045" data-name="Path 44045" d="M1280.332,108.081a2.191,2.191,0,0,0-.645-4.317,1.626,1.626,0,0,0-1.558,1.54,1.478,1.478,0,0,1,1.812-.8c1.335.356.9,2.352.458,2.486S1280.332,108.081,1280.332,108.081Z" transform="translate(-1277.039 -102.699)" fill="#dd8964"/>
          <path id="Path_44046" data-name="Path 44046" d="M1278.781,101.6a2.587,2.587,0,0,0-2.17.626,2.873,2.873,0,0,0-.829,2.655c0,.023.06.06.064.029a3.515,3.515,0,0,1,1.293-2.712,3.755,3.755,0,0,1,1.658-.563C1278.822,101.626,1278.792,101.6,1278.781,101.6Z" transform="translate(-1275.564 -101.33)" fill="#fddebc"/>
          <path id="Path_44047" data-name="Path 44047" d="M1282.89,116.129c-.146-.384-.308-1.045-.308-1.045a3.652,3.652,0,0,1-1.18.717,4.107,4.107,0,0,1-3.582-.363,3.1,3.1,0,0,0,.9.685,3.438,3.438,0,0,0,3.176.057c1.47,3.737,3.75,5.3,7.14,6.706a12.876,12.876,0,0,0,2.745.761A11.642,11.642,0,0,1,1282.89,116.129Z" transform="translate(-1276.847 -109.702)" fill="#f2a37c"/>
        </g>
        <path id="Path_44048" data-name="Path 44048" d="M1317.918,133.142a6.835,6.835,0,0,1-1.807-.745,2.526,2.526,0,0,0,1.745,1.07,3.168,3.168,0,0,0,2.293-.138A7.637,7.637,0,0,1,1317.918,133.142Z" transform="translate(-1299.071 -105.431)" fill="#f2a37c"/>
      </g>
      <g id="Group_8022" data-name="Group 8022" transform="translate(32.046 48.642)">
        <path id="Path_44049" data-name="Path 44049" d="M1245.5,193.513c-.022,1.495-.536,5.513,2.548,8.644s9.02,1.916,10.21,1.636a10.216,10.216,0,0,1,2.733-.14c.635-.013,2.289-.421,2.57-1.682a2.34,2.34,0,0,1-3.084-1.122,7.507,7.507,0,0,1,.105-7.821c1.388-2.132,4.362-2.594,5.174-2.692a1.636,1.636,0,0,0-1.529-1.135c-.724-.092-2.589.775-5.15,1.519C1255.249,191.832,1250.285,193.6,1245.5,193.513Z" transform="translate(-1245.459 -189.193)" fill="#47b"/>
        <path id="Path_44050" data-name="Path 44050" d="M1281.322,191.009c-1.376.592-2.978,2.906-3.345,5.022a10.421,10.421,0,0,1,2.424-3.85,12.83,12.83,0,0,1,2.323-1.562C1282.888,190.481,1282.242,190.612,1281.322,191.009Z" transform="translate(-1265.567 -190.042)" fill="#71abde"/>
        <path id="Path_44051" data-name="Path 44051" d="M1258.262,207.388a10.216,10.216,0,0,1,2.733-.14c.635-.013,2.289-.421,2.57-1.682a2.25,2.25,0,0,1-2.53-.443l-.671.31s-.473.974-1.552-.233c-1.477-1.654-1.19-5.236-1.19-5.236-.738,4.261,1.1,5.964.87,6.087s-4.311,1.171-7.137-.585-2.174-7.005-.634-7.691a53.94,53.94,0,0,0,6.044-2.767h0c-3.41,1.028-7.4,2.171-11.262,2.1-.022,1.495-.536,5.513,2.548,8.644S1257.071,207.668,1258.262,207.388Z" transform="translate(-1245.459 -192.789)" fill="#3e65ae"/>
        <path id="Path_44052" data-name="Path 44052" d="M1287.5,192.73a13.669,13.669,0,0,1,3.612-.807C1290.644,191.371,1289.185,191.587,1287.5,192.73Z" transform="translate(-1271.454 -190.702)" fill="#295296"/>
        <g id="Group_7994" data-name="Group 7994" transform="translate(13.327 1.022)">
          <path id="Path_44053" data-name="Path 44053" d="M1287.353,191.991c1.158-.175,5.6-.355,7.929.979a4.766,4.766,0,0,1,2.562,5.227c-.191,2-12.687,5.429-12.687,5.429s-.4.844-1.871.545-2.531-1.66-2.857-4.435.979-5.714,2.667-6.857a5.7,5.7,0,0,1,3.612-.807Z" transform="translate(-1280.378 -191.87)" fill="#f8c6a3"/>
          <path id="Path_44054" data-name="Path 44054" d="M1288.9,200.571a10.837,10.837,0,0,0-4.036,2.427c-1.981,1.688-3.051,2-3.759.1a8,8,0,0,1,1.111-6.515,8.233,8.233,0,0,0-1.792,6.066c.326,2.776,1.388,4.136,2.857,4.435s1.872-.545,1.872-.545S1286.694,202.048,1288.9,200.571Z" transform="translate(-1280.378 -194.784)" fill="#f2a37c"/>
          <path id="Path_44055" data-name="Path 44055" d="M1289.868,222.672a9.747,9.747,0,0,1-1.872.545C1289.466,223.516,1289.868,222.672,1289.868,222.672Z" transform="translate(-1285.089 -210.917)" fill="#295296"/>
          <path id="Path_44056" data-name="Path 44056" d="M1303.295,206.34c-.183,2.561-2.885,12.1-3.475,14.563-.515,2.146-.836,3.445-.836,3.445-3.289,2.6-6.552,3.966-9.79,4.019,0,0,.158-5.326.158-8.323a24.839,24.839,0,0,1,1.13-8.595c.312-.91,1.807-4.363,3.875-5.647C1297.11,204.09,1299.827,205.712,1303.295,206.34Z" transform="translate(-1285.829 -200.014)" fill="#f8c6a3"/>
          <path id="Path_44057" data-name="Path 44057" d="M1294.583,226.1c-2.387.321-3.005,0-3.512-2.563s.112-7.594.861-8.994a16.5,16.5,0,0,0-1.339,2.781,24.836,24.836,0,0,0-1.13,8.595c0,1.617-.046,3.911-.088,5.682l2.23-.31,7.375-1.866s.175-.15.4-.379c.14-.574.326-1.342.548-2.268l.051-.211A10.154,10.154,0,0,0,1294.583,226.1Z" transform="translate(-1285.942 -205.891)" fill="#f2a37c"/>
          <path id="Path_44058" data-name="Path 44058" d="M1315.507,207.893a3.8,3.8,0,0,1-1.679-1.049c-.48-.552-.683-1.281-.948-1.135-.53.294-.265,2.415.825,3.129a2.285,2.285,0,0,0,2.355.248C1316.443,208.893,1316.912,208.276,1315.507,207.893Z" transform="translate(-1300.313 -200.416)" fill="#f2a37c"/>
          <path id="Path_44059" data-name="Path 44059" d="M1313.961,198.223A4.766,4.766,0,0,0,1311.4,193a11.594,11.594,0,0,0-4.956-1.083c1.852.159,5.861,1.348,6.722,3.971a9.585,9.585,0,0,1,.028,3.45c-.4,3.957-1.661,9.444-1.662,9.449A96.326,96.326,0,0,0,1313.961,198.223Z" transform="translate(-1296.495 -191.897)" fill="#fff" opacity="0.3"/>
        </g>
        <g id="Group_7995" data-name="Group 7995" transform="translate(16.111 22.159)">
          <path id="Path_44060" data-name="Path 44060" d="M1298.043,250.453a8.538,8.538,0,0,1,.776-2.042c.207-.276.207-.758-1.068-1.033a17.781,17.781,0,0,0-7.2.723c-2.514.827-3,1.722-2.858,2.1a12.531,12.531,0,0,1,.559,4.269C1291.484,254.43,1294.748,253.047,1298.043,250.453Z" transform="translate(-1287.673 -247.256)" fill="#eff8fc"/>
          <path id="Path_44061" data-name="Path 44061" d="M1299.049,251.109v0a14.194,14.194,0,0,0-6.079.333c-3.651.93-4.564,2.005-4.564,2.005h0c.081.362.163.792.226,1.246a11.75,11.75,0,0,1,4.337-1.8,15.151,15.151,0,0,1,5.592-.413A11.386,11.386,0,0,1,1299.049,251.109Z" transform="translate(-1288.126 -249.526)" fill="#47b"/>
          <path id="Path_44062" data-name="Path 44062" d="M1292.643,255.157a1.017,1.017,0,0,0-.78.014c-1.552.515-1.9-.654-1.905-1.445a8.008,8.008,0,0,0-.345-2.459,1.119,1.119,0,0,1,.613-1.5c-2.229.794-2.663,1.627-2.531,1.989a12.534,12.534,0,0,1,.559,4.269A12.892,12.892,0,0,0,1292.643,255.157Z" transform="translate(-1287.673 -248.806)" fill="#242357" opacity="0.2" style="mix-blend-mode: multiply;isolation: isolate"/>
        </g>
        <g id="Group_8021" data-name="Group 8021" transform="translate(15.711 24.558)">
          <path id="Path_44063" data-name="Path 44063" d="M1290.6,258.2a2.244,2.244,0,0,1-2.952-.448s-.263.157-.547.978-.624,2.755,0,3.8a15.875,15.875,0,0,1,3.783-1.358,21.482,21.482,0,0,0,5.938-2.653c.979-.663,5.086-3.032,8.149-1.548a4.417,4.417,0,0,0-3.853-1.611c-2.811.032-3.647.1-3.647.1a19.727,19.727,0,0,0-5.45.938C1290.918,256.905,1291.359,257.663,1290.6,258.2Z" transform="translate(-1286.703 -254.664)" fill="#47b"/>
          <path id="Path_44064" data-name="Path 44064" d="M1296.824,258.619a13.816,13.816,0,0,1,2.335-1.227c-.188-.851-.476-1.694-.892-1.868l-.364.016h0a2.88,2.88,0,0,0-1.255,2.283,32.891,32.891,0,0,0-3.568,1.76c-1.525.668-2.381.576-2.741.316-.506-.365-.473-1.3-.473-1.3h0a2.064,2.064,0,0,1-2.212-.744s-.263.157-.547.978-.624,2.755,0,3.8a15.876,15.876,0,0,1,3.783-1.358A21.477,21.477,0,0,0,1296.824,258.619Z" transform="translate(-1286.703 -254.768)" fill="#242357" opacity="0.2" style="mix-blend-mode: multiply;isolation: isolate"/>
          <path id="Path_44065" data-name="Path 44065" d="M1321.52,255.842c-2.9-1.4-6.732.645-7.961,1.431a3.384,3.384,0,0,1,.889-2.958C1315.776,253.068,1320.761,253.163,1321.52,255.842Z" transform="translate(-1303.253 -253.542)" fill="#eff8fc"/>
          <path id="Path_44066" data-name="Path 44066" d="M1321.521,257.138c-1.236-2.259-4.747-1.4-5.674-1.031s-2.137.637-1.979.263a3.857,3.857,0,0,0-.308,2.2C1314.789,257.783,1318.621,255.737,1321.521,257.138Z" transform="translate(-1303.254 -254.837)" fill="#a9cbd3"/>
          <g id="Group_7997" data-name="Group 7997" transform="translate(0 1.27)">
            <path id="Path_44067" data-name="Path 44067" d="M1304.892,257.9a2.961,2.961,0,0,0-1.942-.983,7.936,7.936,0,0,0-5.267,1.346,30.5,30.5,0,0,1-4.9,2.6c-1.6.7-4.942.951-5.955,2.22a3.083,3.083,0,0,0-.194,1.645,2.305,2.305,0,0,0,1.611,2.243c1.106.442,4.327.663,8.339-.663s6.657-1.519,8.307-3.885A3.674,3.674,0,0,0,1304.892,257.9Z" transform="translate(-1286.625 -256.868)" fill="#def1f8"/>
            <g id="Group_7996" data-name="Group 7996" clip-path="url(#clip-path)">
              <path id="Path_44068" data-name="Path 44068" d="M1305.329,260.307c-.686-1.348-2.871-2.462-5.905-1.493-3.1.99-3.641,2.317-6.942,3.565s-6.16.852-7.025,3.666" transform="translate(-1285.903 -257.846)" fill="none" stroke="#47b" stroke-miterlimit="10" stroke-width="1"/>
            </g>
          </g>
          <path id="Path_44070" data-name="Path 44070" d="M1303.075,260.151a9.691,9.691,0,0,0-5.97,1.949,15.439,15.439,0,0,1-4.981,2.389,22.318,22.318,0,0,0-3.933,1.093,1.838,1.838,0,0,0-1.188,1.973,2.264,2.264,0,0,0,1.466,1.44c1.106.442,4.327.663,8.338-.663s6.657-1.519,8.307-3.885a3.806,3.806,0,0,0,.7-3C1305.485,260.8,1305.042,260.2,1303.075,260.151Z" transform="translate(-1286.842 -257.627)" fill="#e8914f"/>
          <path id="Path_44071" data-name="Path 44071" d="M1291.924,269.693a6.56,6.56,0,0,1-2.316-.3,1.712,1.712,0,0,1-1.12-1.045,1.29,1.29,0,0,1,.868-1.317,9.473,9.473,0,0,1,2.313-.7c.444-.09.947-.192,1.541-.363a15.911,15.911,0,0,0,5.162-2.478,9.138,9.138,0,0,1,5.421-1.841c.065,0,.131,0,.2,0,1.674.04,1.987.49,2.2.912a3.264,3.264,0,0,1-.622,2.485c-1.152,1.652-2.852,2.141-5.424,2.883-.775.223-1.653.476-2.592.787a18.1,18.1,0,0,1-5.63.977Z" transform="translate(-1287.771 -258.554)" fill="#d1783b"/>
          <g id="Group_8020" data-name="Group 8020" transform="translate(0.563 2.767)">
            <g id="Group_8018" data-name="Group 8018" transform="translate(0.143 0.327)">
              <g id="Group_8017" data-name="Group 8017" clip-path="url(#clip-path-2)">
                <g id="Group_8016" data-name="Group 8016" transform="translate(0.126 -0.236)">
                  <g id="Group_7998" data-name="Group 7998" transform="translate(16.294 0.327)">
                    <rect id="Rectangle_33" data-name="Rectangle 33" width="4.811" height="0.382" transform="translate(0 4.769) rotate(-82.49)" fill="#c66d32"/>
                  </g>
                  <g id="Group_7999" data-name="Group 7999" transform="translate(14.673 0)">
                    <rect id="Rectangle_34" data-name="Rectangle 34" width="6.088" height="0.382" transform="translate(0 6.036) rotate(-82.49)" fill="#c66d32"/>
                  </g>
                  <g id="Group_8000" data-name="Group 8000" transform="translate(13.111 0.338)">
                    <rect id="Rectangle_35" data-name="Rectangle 35" width="6.294" height="0.382" transform="translate(0 6.241) rotate(-82.598)" fill="#c66d32"/>
                  </g>
                  <g id="Group_8001" data-name="Group 8001" transform="translate(11.54 0.535)">
                    <rect id="Rectangle_36" data-name="Rectangle 36" width="6.574" height="0.381" transform="translate(0 6.514) rotate(-82.248)" fill="#c66d32"/>
                  </g>
                  <g id="Group_8002" data-name="Group 8002" transform="translate(9.985 1.383)">
                    <rect id="Rectangle_37" data-name="Rectangle 37" width="6.216" height="0.382" transform="matrix(0.127, -0.992, 0.992, 0.127, 0, 6.166)" fill="#c66d32"/>
                  </g>
                  <g id="Group_8003" data-name="Group 8003" transform="translate(8.452 2.35)">
                    <rect id="Rectangle_38" data-name="Rectangle 38" width="5.467" height="0.382" transform="translate(0 5.42) rotate(-82.484)" fill="#c66d32"/>
                  </g>
                  <g id="Group_8004" data-name="Group 8004" transform="translate(6.905 3.433)">
                    <rect id="Rectangle_39" data-name="Rectangle 39" width="4.81" height="0.382" transform="translate(0 4.769) rotate(-82.49)" fill="#c66d32"/>
                  </g>
                  <g id="Group_8005" data-name="Group 8005" transform="translate(5.33 3.883)">
                    <rect id="Rectangle_40" data-name="Rectangle 40" width="4.811" height="0.382" transform="translate(0 4.769) rotate(-82.49)" fill="#c66d32"/>
                  </g>
                  <g id="Group_8006" data-name="Group 8006" transform="translate(3.84 4.465)">
                    <rect id="Rectangle_41" data-name="Rectangle 41" width="4.27" height="0.382" transform="translate(0 4.233) rotate(-82.49)" fill="#c66d32"/>
                  </g>
                  <g id="Group_8007" data-name="Group 8007" transform="translate(2.345 4.855)">
                    <rect id="Rectangle_42" data-name="Rectangle 42" width="3.801" height="0.382" transform="translate(0 3.768) rotate(-82.49)" fill="#c66d32"/>
                  </g>
                  <g id="Group_8008" data-name="Group 8008" transform="translate(0.885 5.222)">
                    <rect id="Rectangle_43" data-name="Rectangle 43" width="3.055" height="0.382" transform="translate(0 3.029) rotate(-82.484)" fill="#c66d32"/>
                  </g>
                  <g id="Group_8009" data-name="Group 8009" transform="translate(0 5.807)">
                    <rect id="Rectangle_44" data-name="Rectangle 44" width="0.381" height="6.595" transform="translate(0 0.351) rotate(-67.036)" fill="#c66d32"/>
                  </g>
                  <g id="Group_8010" data-name="Group 8010" transform="translate(2.196 4.866)">
                    <rect id="Rectangle_45" data-name="Rectangle 45" width="0.381" height="7.295" transform="matrix(0.386, -0.923, 0.923, 0.386, 0, 0.352)" fill="#c66d32"/>
                  </g>
                  <g id="Group_8011" data-name="Group 8011" transform="translate(5.217 4.099)">
                    <rect id="Rectangle_46" data-name="Rectangle 46" width="0.381" height="7.021" transform="translate(0 0.35) rotate(-66.476)" fill="#c66d32"/>
                  </g>
                  <g id="Group_8012" data-name="Group 8012" transform="translate(7.408 3.153)">
                    <rect id="Rectangle_47" data-name="Rectangle 47" width="0.381" height="7.398" transform="matrix(0.391, -0.92, 0.92, 0.391, 0, 0.351)" fill="#c66d32"/>
                  </g>
                  <g id="Group_8013" data-name="Group 8013" transform="translate(9.401 1.972)">
                    <rect id="Rectangle_48" data-name="Rectangle 48" width="0.382" height="7.416" transform="translate(0 0.349) rotate(-66.355)" fill="#c66d32"/>
                  </g>
                  <g id="Group_8014" data-name="Group 8014" transform="translate(11.207 0.933)">
                    <rect id="Rectangle_49" data-name="Rectangle 49" width="0.382" height="6.966" transform="translate(0 0.352) rotate(-67.109)" fill="#c66d32"/>
                  </g>
                  <g id="Group_8015" data-name="Group 8015" transform="translate(13.756 0.059)">
                    <rect id="Rectangle_50" data-name="Rectangle 50" width="0.382" height="4.736" transform="matrix(0.389, -0.921, 0.921, 0.389, 0, 0.352)" fill="#c66d32"/>
                  </g>
                </g>
              </g>
            </g>
            <path id="Path_44073" data-name="Path 44073" d="M1306.193,263.875c-.018-.035-.037-.07-.057-.1a3.393,3.393,0,0,1-.664,1.964c-1.152,1.652-2.851,2.142-5.425,2.883-.775.223-1.653.476-2.592.787a18.086,18.086,0,0,1-5.629.977h0a6.554,6.554,0,0,1-2.316-.3,1.835,1.835,0,0,1-1.006-.792,1.058,1.058,0,0,0-.016.373,1.712,1.712,0,0,0,1.12,1.045,6.561,6.561,0,0,0,2.316.3h0a18.1,18.1,0,0,0,5.63-.977c.939-.311,1.817-.564,2.592-.786,2.573-.741,4.272-1.231,5.425-2.883A3.265,3.265,0,0,0,1306.193,263.875Z" transform="translate(-1288.334 -262.633)" fill="#c66d32"/>
            <g id="Group_8019" data-name="Group 8019">
              <line id="Line_1" data-name="Line 1" x1="0.625" y2="4.77" transform="translate(16.411 0.327)" fill="none" stroke="#e8914f" stroke-miterlimit="10" stroke-width="1"/>
              <line id="Line_2" data-name="Line 2" x1="0.791" y2="6.036" transform="translate(14.79)" fill="none" stroke="#e8914f" stroke-miterlimit="10" stroke-width="1"/>
              <line id="Line_3" data-name="Line 3" x1="0.816" y2="6.24" transform="translate(13.223 0.338)" fill="none" stroke="#e8914f" stroke-miterlimit="10" stroke-width="1"/>
              <line id="Line_4" data-name="Line 4" x1="0.884" y2="6.515" transform="translate(11.656 0.536)" fill="none" stroke="#e8914f" stroke-miterlimit="10" stroke-width="1"/>
              <line id="Line_5" data-name="Line 5" x1="0.787" y2="6.166" transform="translate(10.101 1.382)" fill="none" stroke="#e8914f" stroke-miterlimit="10" stroke-width="1"/>
              <line id="Line_6" data-name="Line 6" x1="0.711" y2="5.421" transform="translate(8.57 2.35)" fill="none" stroke="#e8914f" stroke-miterlimit="10" stroke-width="1"/>
              <line id="Line_7" data-name="Line 7" x1="0.625" y2="4.77" transform="translate(7.021 3.433)" fill="none" stroke="#e8914f" stroke-miterlimit="10" stroke-width="1"/>
              <line id="Line_8" data-name="Line 8" x1="0.625" y2="4.77" transform="translate(5.447 3.883)" fill="none" stroke="#e8914f" stroke-miterlimit="10" stroke-width="1"/>
              <line id="Line_9" data-name="Line 9" x1="0.555" y2="4.233" transform="translate(3.957 4.465)" fill="none" stroke="#e8914f" stroke-miterlimit="10" stroke-width="1"/>
              <line id="Line_10" data-name="Line 10" x1="0.494" y2="3.769" transform="translate(2.461 4.855)" fill="none" stroke="#e8914f" stroke-miterlimit="10" stroke-width="1"/>
              <line id="Line_11" data-name="Line 11" x1="0.397" y2="3.029" transform="translate(1.002 5.222)" fill="none" stroke="#e8914f" stroke-miterlimit="10" stroke-width="1"/>
              <line id="Line_12" data-name="Line 12" x2="6.072" y2="2.573" transform="translate(0 5.958)" fill="none" stroke="#e8914f" stroke-miterlimit="10" stroke-width="1"/>
              <line id="Line_13" data-name="Line 13" x2="6.73" y2="2.813" transform="translate(2.195 5.017)" fill="none" stroke="#e8914f" stroke-miterlimit="10" stroke-width="1"/>
              <line id="Line_14" data-name="Line 14" x2="6.438" y2="2.802" transform="translate(5.219 4.249)" fill="none" stroke="#e8914f" stroke-miterlimit="10" stroke-width="1"/>
              <line id="Line_15" data-name="Line 15" x2="6.808" y2="2.896" transform="translate(7.409 3.303)" fill="none" stroke="#e8914f" stroke-miterlimit="10" stroke-width="1"/>
              <line id="Line_16" data-name="Line 16" x2="6.794" y2="2.974" transform="translate(9.403 2.122)" fill="none" stroke="#e8914f" stroke-miterlimit="10" stroke-width="1"/>
              <line id="Line_17" data-name="Line 17" x2="6.417" y2="2.709" transform="translate(11.207 1.084)" fill="none" stroke="#e8914f" stroke-miterlimit="10" stroke-width="1"/>
              <line id="Line_18" data-name="Line 18" x2="4.363" y2="1.84" transform="translate(13.756 0.21)" fill="none" stroke="#e8914f" stroke-miterlimit="10" stroke-width="1"/>
            </g>
          </g>
        </g>
      </g>
    </g>
    <g id="Group_8024" data-name="Group 8024" transform="translate(245.926 13.618)">
      <circle id="Ellipse_543" data-name="Ellipse 543" cx="13.556" cy="13.556" r="13.556" transform="matrix(0.942, -0.336, 0.336, 0.942, 7.87, 9.116)" fill="#7a60a6"/>
      <path id="Path_44074" data-name="Path 44074" d="M1463.57,67.382a13.492,13.492,0,0,0-5.292-7.892,15.168,15.168,0,0,1-3.285,13.243c-5.225,6.513-14.75,6.255-15.174,6.24a13.547,13.547,0,0,0,23.751-11.591Z" transform="translate(-1425.18 -53.164)" fill="#6d5298"/>
      <path id="Path_44075" data-name="Path 44075" d="M1464.588,70.4a12.595,12.595,0,0,1-20.575,12.346,13.359,13.359,0,0,0,18.369-17.048A12.539,12.539,0,0,1,1464.588,70.4Z" transform="translate(-1427.21 -56.167)" fill="#5f4589"/>
      <path id="Path_44076" data-name="Path 44076" d="M1437.473,73.4a4.257,4.257,0,1,1,5.119,3.168A4.257,4.257,0,0,1,1437.473,73.4Z" transform="translate(-1423.989 -57.365)" fill="#f298bb" opacity="0.25"/>
      <path id="Path_44077" data-name="Path 44077" d="M1439.381,72.668a2.454,2.454,0,1,1,2.951,1.826A2.454,2.454,0,0,1,1439.381,72.668Z" transform="translate(-1424.936 -58.082)" fill="#f298bb" opacity="0.25"/>
      <path id="Path_44078" data-name="Path 44078" d="M1457.83,63.23a4.257,4.257,0,1,1,5.119,3.168A4.257,4.257,0,0,1,1457.83,63.23Z" transform="translate(-1433.842 -52.441)" fill="#f298bb" opacity="0.25"/>
      <path id="Path_44079" data-name="Path 44079" d="M1460.3,62.216a2.291,2.291,0,1,1,2.755,1.705A2.291,2.291,0,0,1,1460.3,62.216Z" transform="translate(-1435.063 -53.12)" fill="#f298bb" opacity="0.25"/>
      <path id="Path_44080" data-name="Path 44080" d="M1447.735,60.835a2.1,2.1,0,1,1,2.524,1.562A2.1,2.1,0,0,1,1447.735,60.835Z" transform="translate(-1428.984 -52.566)" fill="#f298bb" opacity="0.25"/>
      <path id="Path_44081" data-name="Path 44081" d="M1448.651,60.942a1.13,1.13,0,1,1,1.359.841A1.13,1.13,0,0,1,1448.651,60.942Z" transform="translate(-1429.44 -53.195)" fill="#f298bb" opacity="0.25"/>
      <path id="Path_44082" data-name="Path 44082" d="M1454.063,58.745a11.427,11.427,0,0,0-12.409,2.691,12.552,12.552,0,0,0-2,14.592,15.489,15.489,0,0,1,3.1-11.822C1446.371,59.819,1451.627,58.983,1454.063,58.745Z" transform="translate(-1424.383 -52.416)" fill="#d6b6d8" opacity="0.15"/>
      <path id="Path_44083" data-name="Path 44083" d="M1453.883,58.582s-7.492-2.276-12.343,3.373-2.62,12.977-2.071,13.91c0,0-4.568-7.735,1.41-14.489C1446.459,55.071,1453.883,58.582,1453.883,58.582Z" transform="translate(-1424.203 -52.253)" fill="#d7cee7"/>
      <path id="Path_44084" data-name="Path 44084" d="M1460.331,84.608c-.739,1.556-6.781.34-14.968-2.744-3.382-1.275-7.132-2.868-11.025-4.716-4.032-1.914-7.757-3.882-10.96-5.758-7.368-4.314-11.981-8.132-11.254-9.666.692-1.455,6.025-.481,13.415,2.174a14.035,14.035,0,0,0-.7,1.22c-3-.865-4.985-1.065-5.3-.4-.333.7,1.238,2.224,4.051,4.125a93.081,93.081,0,0,0,11.631,6.443,95.111,95.111,0,0,0,11.967,4.82c3.46,1.075,5.791,1.377,6.137.65.329-.694-1.209-2.2-3.974-4.073a13.746,13.746,0,0,0,.492-1.293C1456.764,79.522,1461.033,83.129,1460.331,84.608Z" transform="translate(-1411.74 -53.919)" fill="#d5e9f9"/>
      <path id="Path_44085" data-name="Path 44085" d="M1459.73,85.453c-.739,1.556-6.781.34-14.968-2.744-3.382-1.275-7.132-2.868-11.025-4.716-4.032-1.914-7.757-3.882-10.96-5.758-7.368-4.314-11.982-8.132-11.253-9.666.692-1.455,6.057-.463,13.447,2.192a11.48,11.48,0,0,0-.644,1.227c-3-.865-5.073-1.09-5.39-.422-.332.7,1.238,2.224,4.051,4.125a93.085,93.085,0,0,0,11.631,6.443,95.089,95.089,0,0,0,11.966,4.82c3.46,1.075,5.791,1.377,6.137.65.329-.694-1.128-2.147-3.892-4.024.185-.423.4-.823.543-1.262C1456.3,80.446,1460.432,83.974,1459.73,85.453Z" transform="translate(-1411.449 -54.33)" fill="#f49639"/>
      <path id="Path_44086" data-name="Path 44086" d="M1460.331,84.608c-.739,1.556-6.781.34-14.968-2.744-3.382-1.275-7.132-2.868-11.025-4.716-4.032-1.914-7.757-3.882-10.96-5.758-7.368-4.314-11.981-8.132-11.254-9.666.692-1.455,6.025-.481,13.415,2.174a14.035,14.035,0,0,0-.7,1.22c-3-.865-4.985-1.065-5.3-.4-.333.7,1.238,2.224,4.051,4.125a93.081,93.081,0,0,0,11.631,6.443,95.111,95.111,0,0,0,11.967,4.82c3.46,1.075,5.791,1.377,6.137.65.329-.694-1.209-2.2-3.974-4.073a13.746,13.746,0,0,0,.492-1.293C1456.764,79.522,1461.033,83.129,1460.331,84.608Z" transform="translate(-1411.74 -53.919)" fill="#ffe568"/>
      <path id="Path_44087" data-name="Path 44087" d="M1476.926,94.836c1.377,1.337,3.614,2.907,2.5,3.848s-9.858-.753-26.5-8.493c0,0,16.892,6.537,21.259,7.306C1478.521,98.259,1479.129,97.673,1476.926,94.836Z" transform="translate(-1431.525 -68.023)" fill="#fcc231"/>
      <path id="Path_44088" data-name="Path 44088" d="M1420.753,62.929c-1.841-.373-6.38-1.485-7.25-.639s4.32,5.27,6.194,6.326c0,0-4.656-3.759-4.858-5.492C1414.688,61.831,1420.753,62.929,1420.753,62.929Z" transform="translate(-1412.396 -54.369)" fill="#ffedb2"/>
      <path id="Path_44089" data-name="Path 44089" d="M1428.389,66.1a28.5,28.5,0,0,0-3.559-.859c-1.716-.272-3.764-.545-3.553.622s1.773,2.6,4.938,4.8,8.509,5.2,8.509,5.2-7.822-3.93-10.818-6.03-4.8-4.226-4.386-5.14c.522-1.141,5.269-.375,9.088,1.132Z" transform="translate(-1415.326 -55.417)" fill="#ffda60"/>
    </g>
    <g id="Group_8026" data-name="Group 8026" transform="translate(100.166 21.511)">
      <g id="Group_8025" data-name="Group 8025">
        <path id="Path_44090" data-name="Path 44090" d="M1186.844,106.074s-13.925,2.041-25.195-1.951a.634.634,0,0,1-.394-.775c.186-.64.5-1.766.808-3.1C1162.783,97.133,1186.844,106.074,1186.844,106.074Z" transform="translate(-1144.583 -80.465)" fill="#a9cbd3"/>
        <path id="Path_44091" data-name="Path 44091" d="M1162.332,100.248c-.191.826-.383,1.571-.547,2.171h0c11.253,4.463,25.327,3.655,25.327,3.655S1163.052,97.133,1162.332,100.248Z" transform="translate(-1144.851 -80.465)" fill="#8cb8bf"/>
        <path id="Path_44092" data-name="Path 44092" d="M1165.743,75.441s.107,6.061-1.55,9.179,18.359,10.082,24.038,9.766c0,0-7.794-6.567-12.067-11.82A23.981,23.981,0,0,0,1165.743,75.441Z" transform="translate(-1145.97 -68.778)" fill="#cce4ea"/>
        <path id="Path_44093" data-name="Path 44093" d="M1164.194,84.62c-1.656,3.118,18.359,10.082,24.038,9.766-9.071-2.907-21.5-13.227-21.5-13.227a21.326,21.326,0,0,0-.993-5.719S1165.85,81.5,1164.194,84.62Z" transform="translate(-1145.97 -68.778)" fill="#a9cbd3" opacity="0.5"/>
        <path id="Path_44094" data-name="Path 44094" d="M1142.636,78.668c-.58.1-3.277.553-6.127.8-4.282.374-7.979-.358-7.5.79.428,1.025,7.119,7.591,16.722,11.2s21.6,4.8,25.5,4.486a94.32,94.32,0,0,1-15.894-7.625C1147.387,83.473,1144.3,78.367,1142.636,78.668Z" transform="translate(-1128.967 -70.333)" fill="#f7fcfe"/>
        <path id="Path_44095" data-name="Path 44095" d="M1189.776,88.136a56.221,56.221,0,0,1-8.289-11.293c-3.994-7.708-4.941-13.622-5.364-14.187s-2.2.787-5.042,2.966a30.96,30.96,0,0,0-3.792,3.569S1180.783,85.028,1189.776,88.136Z" transform="translate(-1147.514 -62.528)" fill="#f7fcfe"/>
      </g>
      <path id="Path_44096" data-name="Path 44096" d="M1142.765,81.023c-4.622,1.156-10.215.208-8.925,1.793s14.036,11.433,32.269,13.06c0,0-15.932-3.963-22.986-8.255-8.287-5.043-5.216-4.982-3.9-5.283A11.347,11.347,0,0,0,1142.765,81.023Z" transform="translate(-1131.234 -71.479)" fill="#fff"/>
      <path id="Path_44097" data-name="Path 44097" d="M1188.426,88.091s-12.4-9.583-18.508-16.985a20.437,20.437,0,0,1,5.69-5.095,20.588,20.588,0,0,0-3.4,3.933c-.368.719.359,2.23,1.589,3.813C1176.7,77.51,1188.426,88.091,1188.426,88.091Z" transform="translate(-1148.787 -64.214)" fill="#fff"/>
    </g>
    <g id="Group_8028" data-name="Group 8028" transform="translate(219.922 52.596)">
      <g id="Group_8027" data-name="Group 8027" transform="translate(0)">
        <path id="Path_44098" data-name="Path 44098" d="M1411.756,155.021s-10.375,4.453-19.934,3.681a.508.508,0,0,1-.465-.52c.013-.535.023-1.472-.012-2.57C1391.26,153.049,1411.756,155.021,1411.756,155.021Z" transform="translate(-1375.715 -138.029)" fill="#a9cbd3"/>
        <path id="Path_44099" data-name="Path 44099" d="M1391.345,155.613c.022.68.026,1.3.024,1.8h0c9.643,1.14,20.388-2.387,20.388-2.387S1391.26,153.049,1391.345,155.613Z" transform="translate(-1375.715 -138.029)" fill="#8cb8bf"/>
        <path id="Path_44100" data-name="Path 44100" d="M1389.548,136.221s1.332,4.677.691,7.436,16.311,4.031,20.648,2.616a91.3,91.3,0,0,1-11.792-6.676A19.238,19.238,0,0,0,1389.548,136.221Z" transform="translate(-1374.845 -129.28)" fill="#cce4ea"/>
        <path id="Path_44101" data-name="Path 44101" d="M1390.239,143.657c-.641,2.758,16.311,4.031,20.648,2.616-7.631-.384-19.39-5.823-19.39-5.823a17.114,17.114,0,0,0-1.948-4.229S1390.88,140.9,1390.239,143.657Z" transform="translate(-1374.845 -129.28)" fill="#a9cbd3" opacity="0.5"/>
        <path id="Path_44102" data-name="Path 44102" d="M1371.368,141.108c-.428.2-2.426,1.1-4.585,1.885-3.243,1.173-6.26,1.367-5.651,2.158.543.706,7.084,4.417,15.272,5.233s17.734-.734,20.691-1.778a75.686,75.686,0,0,1-13.894-2.635C1376.042,143.853,1372.6,140.532,1371.368,141.108Z" transform="translate(-1361.054 -131.614)" fill="#f7fcfe"/>
        <path id="Path_44103" data-name="Path 44103" d="M1410.886,139.762a45.124,45.124,0,0,1-8.754-7.046c-4.685-5.152-6.638-9.542-7.083-9.893s-1.544,1.064-3.3,3.339a24.8,24.8,0,0,0-2.2,3.549S1403.275,139.206,1410.886,139.762Z" transform="translate(-1374.845 -122.77)" fill="#f7fcfe"/>
      </g>
      <path id="Path_44104" data-name="Path 44104" d="M1371.948,143.841c-3.344,1.848-7.876,2.267-6.549,3.23s13.238,5.97,27.708,3.473c0,0-13.168.213-19.521-1.662-7.465-2.2-5.07-2.787-4.116-3.291A9.09,9.09,0,0,0,1371.948,143.841Z" transform="translate(-1363.043 -132.968)" fill="#fff"/>
      <path id="Path_44105" data-name="Path 44105" d="M1409.527,140.57s-11.59-4.872-17.849-9.352a16.392,16.392,0,0,1,3.361-5.123,16.507,16.507,0,0,0-1.828,3.751c-.137.633.738,1.655,2.018,2.629C1398.259,134.783,1409.527,140.57,1409.527,140.57Z" transform="translate(-1375.876 -124.379)" fill="#fff"/>
    </g>
    <path id="Path_44106" data-name="Path 44106" d="M1099.087,138.653h-5.406a7.291,7.291,0,0,0-7.236-6.419v-3.4a7.508,7.508,0,0,0-7.508-7.508h0a7.508,7.508,0,0,0-7.508,7.508v2.221a5.14,5.14,0,0,0-9.752,2.272v5.326h-6.322a2.25,2.25,0,0,0-2.249,2.25h0a2.25,2.25,0,0,0,2.249,2.249h43.731a2.25,2.25,0,0,0,2.25-2.249h0A2.25,2.25,0,0,0,1099.087,138.653Z" transform="translate(-992.085 -69.475)" fill="#fff"/>
    <g id="Group_8031" data-name="Group 8031" transform="translate(40.225)">
      <circle id="Ellipse_544" data-name="Ellipse 544" cx="15.068" cy="15.068" r="15.068" fill="#ffd348"/>
      <g id="Group_8030" data-name="Group 8030" transform="translate(0.084 0.117)" opacity="0.3" style="mix-blend-mode: multiply;isolation: isolate">
        <g id="Group_8029" data-name="Group 8029">
          <path id="Path_44107" data-name="Path 44107" d="M1028.665,29.621c-1.073-1.2-2.827-3.008-4.193-4.4a14.959,14.959,0,0,0-2.284,1.739c2.442,2.229,4.771,4.231,5.434,4.939C1028.436,32.773,1030.622,31.813,1028.665,29.621Z" transform="translate(-1017.429 -23.079)" fill="#e85d1c"/>
          <path id="Path_44108" data-name="Path 44108" d="M1041.1,49.121c-3.066-1.807-8.78-5.192-11.219-6.755-3.416-2.189-6.016-1.67-7.051-2.535-.75-.626-4.759-4.686-7.095-6.875a15.12,15.12,0,0,0-.917,1.434c1.866,2.063,4.868,5.372,5.531,6.045.977.994.592,2.448-.572,1.411-.725-.646-3.853-3.1-6.112-4.863a15,15,0,0,0-.7,3.183c3.368,3.037,7.522,5.878,8.781,6.008,1.411.146,2.987-2.586,4.717-1.62,1.3.724,8.7,5.38,12.336,7.67A15.123,15.123,0,0,0,1041.1,49.121Z" transform="translate(-1012.966 -26.821)" fill="#e85d1c"/>
          <path id="Path_44109" data-name="Path 44109" d="M1031.809,67.888a15.02,15.02,0,0,0,5.092-2.308c-2.936-1.583-7.589-4.049-8.917-4.511-1.983-.691-1.778,2.781-3.355,2.877-1.387.084-6.135-3.13-11.057-7.278.011.049.02.1.031.146A15.068,15.068,0,0,0,1031.809,67.888Z" transform="translate(-1013.259 -38.298)" fill="#e85d1c"/>
          <path id="Path_44110" data-name="Path 44110" d="M1047.283,21.322c.123.808.691,1.663,2.184,2.885,2.339,1.914,4.252,3.148,5.035,3.976s-1.381,1.145-.246,2.521a31.924,31.924,0,0,0,5.278,3.784,15.294,15.294,0,0,0-.334-1.913A15.067,15.067,0,0,0,1047.283,21.322Z" transform="translate(-1029.575 -21.19)" fill="#e85d1c"/>
          <path id="Path_44111" data-name="Path 44111" d="M1039.417,29.89c-.984-1.411.56-2.961-.587-4.6a51.109,51.109,0,0,0-3.7-4.219,15.343,15.343,0,0,0-1.705.311,15.153,15.153,0,0,0-1.784.557,50.946,50.946,0,0,1,4.512,5.5c.6,1.136-1.241,3-.357,3.679.739.566,11.765,7.71,15.361,10.038a15.038,15.038,0,0,0,.806-3.409C1048.855,35.987,1040.222,31.045,1039.417,29.89Z" transform="translate(-1022.003 -21.067)" fill="#e85d1c"/>
        </g>
      </g>
      <path id="Path_44112" data-name="Path 44112" d="M1046.788,30.063a15.017,15.017,0,0,0-7.8-7.142c.186.319,3.861,6.79-.064,15.188-3.936,8.42-14.305,10.65-14.768,10.746a15.08,15.08,0,0,0,22.634-18.792Z" transform="translate(-1018.297 -21.847)" fill="#e85d1c" opacity="0.3"/>
      <path id="Path_44113" data-name="Path 44113" d="M1048.064,33.049a14.019,14.019,0,0,1-19,18.772,14.87,14.87,0,0,0,15.376-23.276A13.941,13.941,0,0,1,1048.064,33.049Z" transform="translate(-1020.674 -24.569)" fill="#e85d1c" opacity="0.3"/>
      <path id="Path_44114" data-name="Path 44114" d="M1032.017,24.493a12.719,12.719,0,0,0-12.711,6.179,13.971,13.971,0,0,0,1.676,16.309,17.238,17.238,0,0,1,.238-13.6C1023.98,27.679,1029.445,25.391,1032.017,24.493Z" transform="translate(-1015.033 -22.529)" fill="#ffedb2" opacity="0.15"/>
      <path id="Path_44115" data-name="Path 44115" d="M1031.7,24.481s-8.7-.488-12.461,6.9.585,14.725,1.425,15.589c0,0-6.977-7.163-2.292-16.041C1022.745,22.64,1031.7,24.481,1031.7,24.481Z" transform="translate(-1014.715 -22.518)" fill="#ffedb2"/>
    </g>
    <g id="Group_8034" data-name="Group 8034" transform="translate(24.577 4.637)">
      <g id="Group_8032" data-name="Group 8032" transform="translate(179.385)">
        <circle id="Ellipse_545" data-name="Ellipse 545" cx="3.948" cy="3.948" r="3.948" transform="translate(0.678 0.678)" fill="rgba(255,255,255,0.2)"/>
        <path id="Path_44116" data-name="Path 44116" d="M1338.463,39.079h0a.667.667,0,0,1-.668-.667V30.494a.667.667,0,0,1,.668-.667h0a.667.667,0,0,1,.667.667v7.918A.667.667,0,0,1,1338.463,39.079Z" transform="translate(-1333.836 -29.827)" fill="rgba(255,255,255,0.3)"/>
        <path id="Path_44117" data-name="Path 44117" d="M1339.375,38.166h0a.667.667,0,0,1-.667.668h-7.918a.667.667,0,0,1-.667-.668h0a.667.667,0,0,1,.667-.667h7.918A.667.667,0,0,1,1339.375,38.166Z" transform="translate(-1330.123 -33.54)" fill="rgba(255,255,255,0.3)"/>
        <path id="Path_44118" data-name="Path 44118" d="M1339.262,38.166h0a.668.668,0,0,1-.667.668h-4.266a.668.668,0,0,1-.668-.668h0a.668.668,0,0,1,.668-.667h4.266A.667.667,0,0,1,1339.262,38.166Z" transform="translate(-1331.835 -33.54)" fill="#fff"/>
        <path id="Path_44119" data-name="Path 44119" d="M1338.463,38.966h0a.667.667,0,0,1-.668-.668V34.033a.668.668,0,0,1,.668-.668h0a.668.668,0,0,1,.667.668V38.3A.667.667,0,0,1,1338.463,38.966Z" transform="translate(-1333.836 -31.539)" fill="#fff"/>
      </g>
      <g id="Group_8033" data-name="Group 8033" transform="translate(0 28.297)">
        <circle id="Ellipse_546" data-name="Ellipse 546" cx="3.948" cy="3.948" r="3.948" transform="translate(0.678 0.678)" fill="rgba(255,255,255,0.2)"/>
        <path id="Path_44120" data-name="Path 44120" d="M990.816,93.918h0a.667.667,0,0,1-.667-.667V85.333a.667.667,0,0,1,.667-.667h0a.667.667,0,0,1,.668.667v7.918A.667.667,0,0,1,990.816,93.918Z" transform="translate(-986.19 -84.666)" fill="rgba(255,255,255,0.3)"/>
        <path id="Path_44121" data-name="Path 44121" d="M991.729,93.005h0a.668.668,0,0,1-.668.668h-7.917a.667.667,0,0,1-.667-.668h0a.667.667,0,0,1,.667-.667h7.917A.667.667,0,0,1,991.729,93.005Z" transform="translate(-982.477 -88.379)" fill="rgba(255,255,255,0.3)"/>
        <path id="Path_44122" data-name="Path 44122" d="M991.615,93.005h0a.667.667,0,0,1-.667.668h-4.266a.668.668,0,0,1-.668-.668h0a.667.667,0,0,1,.668-.667h4.266A.667.667,0,0,1,991.615,93.005Z" transform="translate(-984.189 -88.379)" fill="#fff"/>
        <path id="Path_44123" data-name="Path 44123" d="M990.816,93.805h0a.668.668,0,0,1-.667-.668V88.872a.667.667,0,0,1,.667-.668h0a.667.667,0,0,1,.668.668v4.266A.668.668,0,0,1,990.816,93.805Z" transform="translate(-986.19 -86.378)" fill="#fff"/>
      </g>
    </g>
    <g id="Group_8035" data-name="Group 8035" transform="translate(0 1.332)">
      <path id="Path_44124" data-name="Path 44124" d="M956.048,26.549a1.064,1.064,0,1,1,1.064,1.064A1.064,1.064,0,0,1,956.048,26.549Z" transform="translate(-945.109 -24.419)" fill="#ffedb2"/>
      <path id="Path_44125" data-name="Path 44125" d="M1039.943,105.529a1.064,1.064,0,1,1,1.064,1.065A1.064,1.064,0,0,1,1039.943,105.529Z" transform="translate(-985.714 -62.646)" fill="#ffedb2"/>
      <path id="Path_44126" data-name="Path 44126" d="M1385.423,89.627a1.064,1.064,0,1,1,1.064,1.064A1.064,1.064,0,0,1,1385.423,89.627Z" transform="translate(-1152.926 -54.949)" fill="#ffedb2"/>
      <path id="Path_44127" data-name="Path 44127" d="M1247.748,28.829a1.064,1.064,0,1,1,1.064,1.064A1.064,1.064,0,0,1,1247.748,28.829Z" transform="translate(-1086.292 -25.523)" fill="#ffedb2"/>
      <path id="Path_44128" data-name="Path 44128" d="M1239.127,81.772a1.065,1.065,0,1,1,1.065,1.064A1.065,1.065,0,0,1,1239.127,81.772Z" transform="translate(-1082.119 -51.148)" fill="#ffedb2"/>
      <path id="Path_44129" data-name="Path 44129" d="M1363.1,24.486a1.065,1.065,0,1,1,1.064,1.065A1.065,1.065,0,0,1,1363.1,24.486Z" transform="translate(-1142.122 -23.421)" fill="#ffedb2"/>
      <path id="Path_44130" data-name="Path 44130" d="M1131.719,42.6a1.065,1.065,0,1,1,1.064,1.065A1.064,1.064,0,0,1,1131.719,42.6Z" transform="translate(-1030.134 -32.187)" fill="#ffedb2"/>
      <path id="Path_44131" data-name="Path 44131" d="M934.848,67.411a1.064,1.064,0,1,1,1.064,1.064A1.064,1.064,0,0,1,934.848,67.411Z" transform="translate(-934.848 -44.197)" fill="#ffedb2"/>
    </g>
  </g>
</svg>
