<svg id="ic_camera" xmlns="http://www.w3.org/2000/svg" width="20.773" height="18.176" viewBox="0 0 20.773 18.176">
  <path id="ic_camera-2" data-name="ic_camera" d="M13.9-14.956h4.921V-3.271H1.947V-14.956H6.869l.974-2.6h5.092ZM13.157-19.5H7.842a1.945,1.945,0,0,0-1.822,1.262l-.5,1.335H1.947A1.948,1.948,0,0,0,0-14.956V-3.271A1.948,1.948,0,0,0,1.947-1.324H18.825a1.948,1.948,0,0,0,1.947-1.947V-14.956A1.948,1.948,0,0,0,18.825-16.9h-3.57l-.58-1.542A1.613,1.613,0,0,0,13.157-19.5ZM10.386-4.245a4.872,4.872,0,0,0,4.869-4.869,4.872,4.872,0,0,0-4.869-4.869A4.872,4.872,0,0,0,5.518-9.114,4.872,4.872,0,0,0,10.386-4.245Zm0-7.79a2.925,2.925,0,0,1,2.921,2.921,2.925,2.925,0,0,1-2.921,2.921A2.925,2.925,0,0,1,7.465-9.114,2.925,2.925,0,0,1,10.386-12.035Z" transform="translate(0 19.5)" fill="#777"/>
</svg>
