<svg xmlns="http://www.w3.org/2000/svg" width="24.493" height="22.943" viewBox="0 0 24.493 22.943">
  <g id="Icon_ionic-ios-school" data-name="Icon ionic-ios-school" transform="translate(-2.317 -4.43)">
    <path id="Path_50480" data-name="Path 50480" d="M6.813,18.879v5.067a.443.443,0,0,0,.219.383l7.216,4.149A.438.438,0,0,0,14.9,28.1V22.968a.443.443,0,0,0-.219-.383L7.469,18.491A.445.445,0,0,0,6.813,18.879Z" transform="translate(-1.001 -1.165)"/>
    <path id="Path_50481" data-name="Path 50481" d="M19.565,28.463l7.221-4.149A.436.436,0,0,0,27,23.931V18.809a.439.439,0,0,0-.656-.383l-7.216,4.149a.436.436,0,0,0-.219.383v5.128A.433.433,0,0,0,19.565,28.463Z" transform="translate(-3.693 -1.15)"/>
    <path id="Path_50482" data-name="Path 50482" d="M14.127,4.557,2.538,12.08a.513.513,0,0,0,0,.845l11.589,7.158a.8.8,0,0,0,.869,0l10.283-6.544c.29-.188.383.049.383.425v9.321a.536.536,0,0,0,.6.608h0a.568.568,0,0,0,.547-.608V12.845a.505.505,0,0,0-.219-.425L15,4.557A.8.8,0,0,0,14.127,4.557Z"/>
  </g>
</svg>
