<svg xmlns="http://www.w3.org/2000/svg" width="25.037" height="21.624" viewBox="0 0 25.037 21.624">
  <g id="ic_record_voice_over_24px" transform="translate(-1 -2)">
    <circle id="Ellipse_3" data-name="Ellipse 3" cx="4.703" cy="4.703" r="4.703" transform="translate(5.157 4.973)"/>
    <path id="Path_3" data-name="Path 3" d="M10.1,16.8C7.066,16.8,1,18.32,1,21.347v2.276H19.209V21.347C19.209,18.32,13.143,16.8,10.1,16.8ZM18.936,5.824,17.024,7.747a3.775,3.775,0,0,1,0,4.427L18.936,14.1a5.824,5.824,0,0,0,0-8.274ZM22.7,2,20.848,3.855a9.08,9.08,0,0,1,0,12.223L22.7,17.933A11.187,11.187,0,0,0,22.7,2Z" transform="translate(0 0)"/>
  </g>
</svg>
