<svg xmlns="http://www.w3.org/2000/svg" xmlns:xlink="http://www.w3.org/1999/xlink" width="72" height="72" viewBox="0 0 72 72">
  <defs>
    <linearGradient id="linear-gradient" x1="0.5" x2="0.5" y2="1" gradientUnits="objectBoundingBox">
      <stop offset="0" stop-color="#ffb84c"/>
      <stop offset="1" stop-color="#f16767"/>
    </linearGradient>
  </defs>
  <g id="Group_16813" data-name="Group 16813" transform="translate(-33.806 -275.447)">
    <g id="ic_fees_due" transform="translate(33.806 275.447)">
      <circle id="Ellipse_12" data-name="Ellipse 12" cx="36" cy="36" r="36" fill="url(#linear-gradient)"/>
    </g>
    <g id="Layer_x0020_1" transform="translate(2.889 292.99)">
      <path id="id_131" d="M77,33.341H57.921a.52.52,0,0,1,0-1.04H77A.52.52,0,0,1,77,33.341Zm1.634,4.678H56.658A4.318,4.318,0,0,1,52.5,33.564V4.455A4.318,4.318,0,0,1,56.658,0H75.594a.517.517,0,0,1,.4.19c.747.867,6.564,7.14,6.68,7.393a.517.517,0,0,1,.045.224V33.564A4.278,4.278,0,0,1,78.638,38.019ZM75.074,1.04H56.658A3.277,3.277,0,0,0,53.54,4.455V33.564a3.277,3.277,0,0,0,3.119,3.416h21.98a3.249,3.249,0,0,0,3.045-3.416V8.317H75.594a.517.517,0,0,1-.52-.52Zm1.04,6.238h4.916L76.113,1.864ZM77,19.975H57.921a.52.52,0,0,1,0-1.04H77A.52.52,0,0,1,77,19.975ZM59.257,13.44a.52.52,0,0,1-.483-.713l.854-2.183a.519.519,0,0,1,.154-.372L61,7.084a.521.521,0,0,1,.992.077c.182.6,1.182,2.959,1.27,3.328l.857,2.246a.517.517,0,0,1-.965.371l-.78-2.042H60.549l-.809,2.049A.523.523,0,0,1,59.257,13.44Zm2.221-4.73-.519,1.314h1.02Zm6.021.646h-.891c0,.553.134,1.337-.52,1.337s-.52-.783-.52-1.337c-.6,0-1.411.143-1.411-.52s.81-.52,1.411-.52c0-.6-.143-1.411.52-1.411s.52.81.52,1.411c.6,0,1.411-.143,1.411.52A.517.517,0,0,1,67.5,9.356Zm-4.455,7.8A7.073,7.073,0,1,1,68.079,5.094,7.061,7.061,0,0,1,63.044,17.153Zm0-13.069A6.015,6.015,0,1,0,69.133,10.1,6.018,6.018,0,0,0,63.044,4.084ZM77,24.43H57.921a.52.52,0,0,1,0-1.04H77A.52.52,0,0,1,77,24.43Zm0,4.455H57.921a.52.52,0,0,1,0-1.04H77A.52.52,0,0,1,77,28.886Z" transform="translate(0)" fill="#f59b00" fill-rule="evenodd"/>
      <path id="id_132" d="M70.881,31.9H89.965a.52.52,0,0,1,0,1.04H70.881A.52.52,0,0,1,70.881,31.9Zm0,4.455H89.965a.52.52,0,0,1,0,1.04H70.881A.52.52,0,0,1,70.881,36.351Zm0,4.455H89.965a.52.52,0,0,1,0,1.04H70.881A.52.52,0,0,1,70.881,40.807Zm0,4.455H89.965a.52.52,0,0,1,0,1.04H70.881A.52.52,0,0,1,70.881,45.262ZM69.619,49.94H91.6a3.249,3.249,0,0,0,3.045-3.416V21.277H88.554a.517.517,0,0,1-.52-.52V14H69.619A3.277,3.277,0,0,0,66.5,17.416V46.524A3.277,3.277,0,0,0,69.619,49.94ZM81.039,18.054a7.073,7.073,0,1,1-12.089,5,7.056,7.056,0,0,1,12.089-5Z" transform="translate(-12.96 -12.96)" fill="#fff" fill-rule="evenodd"/>
      <path id="id_133" d="M119.515,67.03a6.015,6.015,0,1,0-6.015-6.015A6.058,6.058,0,0,0,119.515,67.03Zm.22-5.624.857,2.246a.517.517,0,0,1-.965.371l-.78-2.042h-1.827l-.809,2.049a.52.52,0,0,1-.965-.386l.854-2.183a.519.519,0,0,1,.154-.372L117.473,58a.521.521,0,0,1,.992.077C118.647,58.68,119.647,61.036,119.735,61.405Zm2.825.2c-.655,0-.52-.783-.52-1.337-.6,0-1.411.143-1.411-.52s.81-.52,1.411-.52c0-.6-.143-1.411.52-1.411s.52.81.52,1.411c.6,0,1.411-.143,1.411.52a.517.517,0,0,1-.52.52h-.891C123.079,60.825,123.213,61.609,122.559,61.609Z" transform="translate(-56.47 -50.916)" fill="#f9f9f9" fill-rule="evenodd"/>
      <path id="id_134" d="M166.42,118.614h1.02l-.5-1.314Z" transform="translate(-105.461 -108.59)" fill="#f9f9f9" fill-rule="evenodd"/>
      <path id="id_135" d="M370.5,25.1v5.413h4.916Z" transform="translate(-294.387 -23.236)" fill="#ffb84c" fill-rule="evenodd"/>
    </g>
  </g>
</svg>
