<svg xmlns="http://www.w3.org/2000/svg" width="24.383" height="19.506" viewBox="0 0 24.383 19.506">
  <path id="Icon_awesome-chalkboard-teacher" data-name="Icon awesome-chalkboard-teacher" d="M7.924,13.411a.872.872,0,0,0-.269.042,5.026,5.026,0,0,1-1.56.263,5.03,5.03,0,0,1-1.56-.263.869.869,0,0,0-.269-.042A4.267,4.267,0,0,0,0,17.7a1.824,1.824,0,0,0,1.829,1.805h8.534A1.824,1.824,0,0,0,12.191,17.7,4.267,4.267,0,0,0,7.924,13.411ZM6.1,12.191A3.657,3.657,0,1,0,2.438,8.534,3.657,3.657,0,0,0,6.1,12.191ZM22.554,0H7.924A1.862,1.862,0,0,0,6.1,1.889V3.657a4.821,4.821,0,0,1,2.438.678v-1.9H21.945V13.411H19.506V10.972H14.63v2.438h-2.9a4.856,4.856,0,0,1,1.512,2.438h9.317a1.862,1.862,0,0,0,1.829-1.889V1.889A1.862,1.862,0,0,0,22.554,0Z" transform="translate(0)"/>
</svg>
