<svg id="ic_attendance" xmlns="http://www.w3.org/2000/svg" xmlns:xlink="http://www.w3.org/1999/xlink" width="72" height="72" viewBox="0 0 72 72">
  <defs>
    <linearGradient id="linear-gradient" x1="0.5" x2="0.5" y2="1" gradientUnits="objectBoundingBox">
      <stop offset="0" stop-color="#ffb84c"/>
      <stop offset="1" stop-color="#f16767"/>
    </linearGradient>
  </defs>
  <circle id="Ellipse_12" data-name="Ellipse 12" cx="36" cy="36" r="36" fill="url(#linear-gradient)"/>
  <g id="Group_8079" data-name="Group 8079" transform="translate(21.194 15.553)">
    <path id="Path_50030" data-name="Path 50030" d="M957.519,302.181a37.233,37.233,0,0,1-9.943-1.23,13.6,13.6,0,0,1-4.118-1.755,8.174,8.174,0,0,1-1.372-1.238,2.209,2.209,0,0,1-.525-1.619,11.4,11.4,0,0,1,8.861-10.9,1.335,1.335,0,0,1,1.2.2,9.689,9.689,0,0,0,5.463,1.693,10.591,10.591,0,0,0,4.794-.817c.663-.309,1.278-.721,1.92-1.076a.619.619,0,0,1,.363-.09,11.351,11.351,0,0,1,9.091,8.716,20.443,20.443,0,0,1,.278,2.186,2.552,2.552,0,0,1-.808,2.07,8.539,8.539,0,0,1-2.981,1.869,24.582,24.582,0,0,1-5.678,1.507A40.1,40.1,0,0,1,957.519,302.181Z" transform="translate(-941.559 -261.88)" fill="#f5eaea"/>
    <path id="Path_50031" data-name="Path 50031" d="M1009.025-111.662c-.014.26-.025.432.233.56a.606.606,0,0,1,.061,1.04.34.34,0,0,0-.171.352c.152,2.019.28,4.041.456,6.058a6.015,6.015,0,0,1-.521,2.534c-.021.061-.1.1-.152.152-.044-.047-.111-.086-.13-.141a6.148,6.148,0,0,1-.507-2.678c.181-1.763.262-3.537.385-5.306.01-.145.03-.289.042-.434a.552.552,0,0,0-.212-.595.59.59,0,0,1,.136-.992c.261-.116.218-.325.23-.5,0-.072-.166-.173-.273-.229-.239-.126-.5-.21-.73-.352-.382-.24-.385-.6.006-.825a10.742,10.742,0,0,1,1.1-.515q4.644-2.014,9.291-4.022a3.519,3.519,0,0,1,2.9-.006q5.059,2.187,10.116,4.376c.268.116.58.238.576.582s-.314.459-.583.576c-1.082.47-2.163.941-3.249,1.4a.354.354,0,0,0-.257.384c.013.95-.019,1.9.018,2.85a6.388,6.388,0,0,0,.257,1.124,9.615,9.615,0,0,1-1.358,7.371,8.93,8.93,0,0,1-4.511,3.9,6.88,6.88,0,0,1-7.034-1.225,10.378,10.378,0,0,1-3.9-6.878,8.378,8.378,0,0,1,.351-3.844,1.727,1.727,0,0,0,.084-.509c.008-.931,0-1.862.008-2.793a.33.33,0,0,0-.233-.368C1010.659-110.947,1009.865-111.3,1009.025-111.662Z" transform="translate(-1003.743 117.873)" fill="#f5eaea"/>
  </g>
</svg>
