<svg xmlns="http://www.w3.org/2000/svg" width="28.074" height="40.424" viewBox="0 0 28.074 40.424">
  <g id="ic_assignment" transform="translate(257.488 -269)">
    <path id="Path_151" data-name="Path 151" d="M-218.973,269a6.715,6.715,0,0,1,5.278,4.623,6.519,6.519,0,0,1-6.248,8.4,6.65,6.65,0,0,1-6.4-4.967,6.7,6.7,0,0,1,3.663-7.488c.517-.239,1.077-.384,1.618-.573Z" transform="translate(-23.8)" fill="#f0a04b"/>
    <path id="Path_152" data-name="Path 152" d="M-241.591,373.411c0-1.427-.041-2.62.029-3.806a1.3,1.3,0,0,1,.625-.813,5.434,5.434,0,0,0,.018-9.175,1.309,1.309,0,0,1-.642-.8c-.071-1.224-.03-2.455-.03-3.724,4.124-.618,7.537.328,10.272,3.509,2.557-3.62,6.278-3.678,10.25-3.5,0,1.305.025,2.563-.022,3.817a1.094,1.094,0,0,1-.474.677,5.491,5.491,0,0,0-.006,9.162,1.18,1.18,0,0,1,.481.784c.051,1.268.023,2.539.023,3.987-3.792-1.088-7.383-1.289-10.39,1.895C-234.362,372.7-237.771,372.42-241.591,373.411Z" transform="translate(-12.203 -66)" fill="#f0a04b"/>
    <path id="Path_153" data-name="Path 153" d="M-227.908,346.725c-1.1.041-1.4-.534-1.334-1.573.079-1.23.009-2.47,0-3.706a1.522,1.522,0,0,0-.141-.348c-4.082-.2-8.222-.553-11.509,2.829-.438-.345-.826-.658-1.22-.96-2.887-2.214-6.221-2.242-9.608-1.9-.249.025-.612.528-.64.834a19.09,19.09,0,0,0-.063,3.124c.085,1.174-.341,1.8-1.561,1.853,0-1.381-.073-2.77.016-4.148a4.425,4.425,0,0,1,4.377-4.357c5.984-.109,11.972-.086,17.958-.058a4.376,4.376,0,0,1,3.678,3.26A39.207,39.207,0,0,1-227.908,346.725Z" transform="translate(-2.668 -53.228)" fill="#f0a04b"/>
    <path id="Path_154" data-name="Path 154" d="M-257.488,382.45a10.919,10.919,0,0,1,.536-1.784,2.4,2.4,0,0,1,2.409-1.627A2.515,2.515,0,0,1-252.2,381.1a8.5,8.5,0,0,1-.034,3.262,2.6,2.6,0,0,1-2.459,2.069,2.735,2.735,0,0,1-2.488-2.2C-257.325,383.723-257.366,383.184-257.488,382.45Z" transform="translate(0 -84.525)" fill="#f0a04b"/>
    <path id="Path_155" data-name="Path 155" d="M-154.742,382.935a8.471,8.471,0,0,1-.469,1.824,2.526,2.526,0,0,1-2.339,1.61,2.481,2.481,0,0,1-2.283-1.667,4.832,4.832,0,0,1-.075-3.916,2.667,2.667,0,0,1,2.665-1.814,3.161,3.161,0,0,1,2.352,2.406C-154.817,381.793-154.807,382.219-154.742,382.935Z" transform="translate(-74.673 -84.474)" fill="#f0a04b"/>
  </g>
</svg>
