<svg xmlns="http://www.w3.org/2000/svg" width="20" height="20" viewBox="0 0 20 20">
  <g id="gear_2_" data-name="gear (2)" transform="translate(0 -1)">
    <path id="ic_account_box_24px" d="M3,5.222V20.778A2.222,2.222,0,0,0,5.222,23H20.778A2.229,2.229,0,0,0,23,20.778V5.222A2.229,2.229,0,0,0,20.778,3H5.222A2.222,2.222,0,0,0,3,5.222ZM16.333,9.667A3.333,3.333,0,1,1,13,6.333,3.329,3.329,0,0,1,16.333,9.667Zm-10,8.889c0-2.222,4.444-3.444,6.667-3.444s6.667,1.222,6.667,3.444v1.111H6.333Z" transform="translate(-3 -2)"/>
  </g>
</svg>
